# MagicaVoxel @ Ephtracy

# group
g alarm_light

# material
mtllib alarm_light.mtl
usemtl palette

# normals
vn -1 0 0
vn 1 0 0
vn 0 0 1
vn 0 0 -1
vn 0 -1 0
vn 0 1 0

# texcoords
vt 0.845703 0.5
vt 0.966797 0.5
vt 0.982422 0.5

# verts
v -4 0 2
v -4 0 -2
v -4 1 2
v -4 1 -2
v -3 0 3
v -3 0 2
v -3 0 -2
v -3 0 -3
v -3 1 3
v -3 1 2
v -3 1 1
v -3 1 -0
v -3 1 -1
v -3 1 -2
v -3 1 -3
v -3 2 1
v -3 2 -0
v -3 2 -1
v -2 0 4
v -2 0 3
v -2 0 -3
v -2 0 -4
v -2 1 4
v -2 1 3
v -2 1 2
v -2 1 1
v -2 1 -1
v -2 1 -2
v -2 1 -3
v -2 1 -4
v -2 2 2
v -2 2 1
v -2 2 -0
v -2 2 -1
v -2 2 -2
v -2 7 1
v -2 7 -0
v -2 7 -1
v -1 1 3
v -1 1 2
v -1 1 -2
v -1 1 -3
v -1 2 3
v -1 2 2
v -1 2 1
v -1 2 -1
v -1 2 -2
v -1 2 -3
v -1 7 2
v -1 7 1
v -1 7 -0
v -1 7 -1
v -1 7 -2
v -1 8 1
v -1 8 -0
v -1 8 -1
v 1 1 3
v 1 1 2
v 1 1 -2
v 1 1 -3
v 1 2 3
v 1 2 2
v 1 2 1
v 1 2 -1
v 1 2 -2
v 1 2 -3
v 1 7 2
v 1 7 1
v 1 7 -0
v 1 7 -1
v 1 7 -2
v 1 8 1
v 1 8 -0
v 1 8 -1
v 2 0 4
v 2 0 3
v 2 0 -3
v 2 0 -4
v 2 1 4
v 2 1 3
v 2 1 2
v 2 1 1
v 2 1 -1
v 2 1 -2
v 2 1 -3
v 2 1 -4
v 2 2 2
v 2 2 1
v 2 2 -0
v 2 2 -1
v 2 2 -2
v 2 7 1
v 2 7 -0
v 2 7 -1
v 3 0 3
v 3 0 2
v 3 0 -2
v 3 0 -3
v 3 1 3
v 3 1 2
v 3 1 1
v 3 1 -0
v 3 1 -1
v 3 1 -2
v 3 1 -3
v 3 2 1
v 3 2 -0
v 3 2 -1
v 4 0 2
v 4 0 -2
v 4 1 2
v 4 1 -2
v -2 0 4
v -2 1 4
v 2 0 4
v 2 1 4
v -3 0 3
v -3 1 3
v -2 0 3
v -2 1 3
v -1 1 3
v -1 2 3
v 0 1 3
v 0 2 3
v 1 1 3
v 1 2 3
v 2 0 3
v 2 1 3
v 3 0 3
v 3 1 3
v -4 0 2
v -4 1 2
v -3 0 2
v -3 1 2
v -2 1 2
v -2 2 2
v -1 1 2
v -1 2 2
v -1 7 2
v 0 2 2
v 0 7 2
v 1 1 2
v 1 2 2
v 1 7 2
v 2 1 2
v 2 2 2
v 3 0 2
v 3 1 2
v 4 0 2
v 4 1 2
v -3 1 1
v -3 2 1
v -2 1 1
v -2 2 1
v -2 7 1
v -1 2 1
v -1 7 1
v -1 8 1
v 0 7 1
v 0 8 1
v 1 2 1
v 1 7 1
v 1 8 1
v 2 1 1
v 2 2 1
v 2 7 1
v 3 1 1
v 3 2 1
v -3 1 -1
v -3 2 -1
v -2 1 -1
v -2 2 -1
v -2 7 -1
v -1 2 -1
v -1 7 -1
v -1 8 -1
v 0 7 -1
v 0 8 -1
v 1 2 -1
v 1 7 -1
v 1 8 -1
v 2 1 -1
v 2 2 -1
v 2 7 -1
v 3 1 -1
v 3 2 -1
v -4 0 -2
v -4 1 -2
v -3 0 -2
v -3 1 -2
v -2 1 -2
v -2 2 -2
v -1 1 -2
v -1 2 -2
v -1 7 -2
v 0 2 -2
v 0 7 -2
v 1 1 -2
v 1 2 -2
v 1 7 -2
v 2 1 -2
v 2 2 -2
v 3 0 -2
v 3 1 -2
v 4 0 -2
v 4 1 -2
v -3 0 -3
v -3 1 -3
v -2 0 -3
v -2 1 -3
v -1 1 -3
v -1 2 -3
v 0 1 -3
v 0 2 -3
v 1 1 -3
v 1 2 -3
v 2 0 -3
v 2 1 -3
v 3 0 -3
v 3 1 -3
v -2 0 -4
v -2 1 -4
v 2 0 -4
v 2 1 -4
v -2 0 4
v 2 0 4
v -3 0 3
v -2 0 3
v 2 0 3
v 3 0 3
v -4 0 2
v -3 0 2
v 3 0 2
v 4 0 2
v -4 0 -2
v -3 0 -2
v 3 0 -2
v 4 0 -2
v -3 0 -3
v -2 0 -3
v 2 0 -3
v 3 0 -3
v -2 0 -4
v 2 0 -4
v -2 1 4
v 2 1 4
v -3 1 3
v -2 1 3
v -1 1 3
v 0 1 3
v 1 1 3
v 2 1 3
v 3 1 3
v -4 1 2
v -3 1 2
v -2 1 2
v -1 1 2
v 1 1 2
v 2 1 2
v 3 1 2
v 4 1 2
v -3 1 1
v -2 1 1
v 2 1 1
v 3 1 1
v -3 1 -0
v 3 1 -0
v -3 1 -1
v -2 1 -1
v 2 1 -1
v 3 1 -1
v -4 1 -2
v -3 1 -2
v -2 1 -2
v -1 1 -2
v 1 1 -2
v 2 1 -2
v 3 1 -2
v 4 1 -2
v -3 1 -3
v -2 1 -3
v -1 1 -3
v 0 1 -3
v 1 1 -3
v 2 1 -3
v 3 1 -3
v -2 1 -4
v 2 1 -4
v -1 2 3
v 0 2 3
v 1 2 3
v -2 2 2
v -1 2 2
v 0 2 2
v 1 2 2
v 2 2 2
v -3 2 1
v -2 2 1
v -1 2 1
v 1 2 1
v 2 2 1
v 3 2 1
v -3 2 -0
v -2 2 -0
v 2 2 -0
v 3 2 -0
v -3 2 -1
v -2 2 -1
v -1 2 -1
v 1 2 -1
v 2 2 -1
v 3 2 -1
v -2 2 -2
v -1 2 -2
v 0 2 -2
v 1 2 -2
v 2 2 -2
v -1 2 -3
v 0 2 -3
v 1 2 -3
v -1 7 2
v 0 7 2
v 1 7 2
v -2 7 1
v -1 7 1
v 0 7 1
v 1 7 1
v 2 7 1
v -2 7 -0
v -1 7 -0
v 1 7 -0
v 2 7 -0
v -2 7 -1
v -1 7 -1
v 0 7 -1
v 1 7 -1
v 2 7 -1
v -1 7 -2
v 0 7 -2
v 1 7 -2
v -1 8 1
v 0 8 1
v 1 8 1
v -1 8 -0
v 0 8 -0
v 1 8 -0
v -1 8 -1
v 0 8 -1
v 1 8 -1

# faces
f 3/3/1 2/3/1 1/3/1
f 4/3/1 2/3/1 3/3/1
f 9/3/1 6/3/1 5/3/1
f 10/3/1 6/3/1 9/3/1
f 14/3/1 8/3/1 7/3/1
f 15/3/1 8/3/1 14/3/1
f 16/2/1 12/2/1 11/2/1
f 17/1/1 13/1/1 12/1/1
f 17/2/1 12/2/1 16/2/1
f 18/1/1 13/1/1 17/1/1
f 23/3/1 20/3/1 19/3/1
f 24/3/1 20/3/1 23/3/1
f 29/3/1 22/3/1 21/3/1
f 30/3/1 22/3/1 29/3/1
f 31/2/1 26/2/1 25/2/1
f 32/2/1 26/2/1 31/2/1
f 34/1/1 28/1/1 27/1/1
f 35/1/1 28/1/1 34/1/1
f 36/2/1 33/2/1 32/2/1
f 37/1/1 34/1/1 33/1/1
f 37/2/1 33/2/1 36/2/1
f 38/1/1 34/1/1 37/1/1
f 43/2/1 40/2/1 39/2/1
f 44/2/1 40/2/1 43/2/1
f 47/1/1 42/1/1 41/1/1
f 48/1/1 42/1/1 47/1/1
f 49/2/1 45/2/1 44/2/1
f 50/2/1 45/2/1 49/2/1
f 52/1/1 47/1/1 46/1/1
f 53/1/1 47/1/1 52/1/1
f 54/2/1 51/2/1 50/2/1
f 55/1/1 52/1/1 51/1/1
f 55/2/1 51/2/1 54/2/1
f 56/1/1 52/1/1 55/1/1
f 57/1/2 58/1/2 61/1/2
f 61/1/2 58/1/2 62/1/2
f 59/2/2 60/2/2 65/2/2
f 65/2/2 60/2/2 66/2/2
f 62/1/2 63/1/2 67/1/2
f 67/1/2 63/1/2 68/1/2
f 64/2/2 65/2/2 70/2/2
f 70/2/2 65/2/2 71/2/2
f 68/1/2 69/1/2 72/1/2
f 69/2/2 70/2/2 73/2/2
f 72/1/2 69/1/2 73/1/2
f 73/2/2 70/2/2 74/2/2
f 75/3/2 76/3/2 79/3/2
f 79/3/2 76/3/2 80/3/2
f 77/3/2 78/3/2 85/3/2
f 85/3/2 78/3/2 86/3/2
f 81/1/2 82/1/2 87/1/2
f 87/1/2 82/1/2 88/1/2
f 83/2/2 84/2/2 90/2/2
f 90/2/2 84/2/2 91/2/2
f 88/1/2 89/1/2 92/1/2
f 89/2/2 90/2/2 93/2/2
f 92/1/2 89/1/2 93/1/2
f 93/2/2 90/2/2 94/2/2
f 95/3/2 96/3/2 99/3/2
f 99/3/2 96/3/2 100/3/2
f 97/3/2 98/3/2 104/3/2
f 104/3/2 98/3/2 105/3/2
f 101/1/2 102/1/2 106/1/2
f 102/2/2 103/2/2 107/2/2
f 106/1/2 102/1/2 107/1/2
f 107/2/2 103/2/2 108/2/2
f 109/3/2 110/3/2 111/3/2
f 111/3/2 110/3/2 112/3/2
f 115/3/3 114/3/3 113/3/3
f 116/3/3 114/3/3 115/3/3
f 119/3/3 118/3/3 117/3/3
f 120/3/3 118/3/3 119/3/3
f 123/2/3 122/2/3 121/2/3
f 124/2/3 122/2/3 123/2/3
f 125/1/3 124/1/3 123/1/3
f 126/1/3 124/1/3 125/1/3
f 129/3/3 128/3/3 127/3/3
f 130/3/3 128/3/3 129/3/3
f 133/3/3 132/3/3 131/3/3
f 134/3/3 132/3/3 133/3/3
f 137/2/3 136/2/3 135/2/3
f 138/2/3 136/2/3 137/2/3
f 140/2/3 139/2/3 138/2/3
f 141/2/3 139/2/3 140/2/3
f 143/1/3 141/1/3 140/1/3
f 144/1/3 141/1/3 143/1/3
f 145/1/3 143/1/3 142/1/3
f 146/1/3 143/1/3 145/1/3
f 149/3/3 148/3/3 147/3/3
f 150/3/3 148/3/3 149/3/3
f 153/2/3 152/2/3 151/2/3
f 154/2/3 152/2/3 153/2/3
f 156/2/3 155/2/3 154/2/3
f 157/2/3 155/2/3 156/2/3
f 159/2/3 158/2/3 157/2/3
f 160/2/3 158/2/3 159/2/3
f 162/1/3 160/1/3 159/1/3
f 163/1/3 160/1/3 162/1/3
f 165/1/3 162/1/3 161/1/3
f 166/1/3 162/1/3 165/1/3
f 167/1/3 165/1/3 164/1/3
f 168/1/3 165/1/3 167/1/3
f 169/1/4 170/1/4 171/1/4
f 171/1/4 170/1/4 172/1/4
f 172/1/4 173/1/4 174/1/4
f 174/1/4 173/1/4 175/1/4
f 175/1/4 176/1/4 177/1/4
f 177/1/4 176/1/4 178/1/4
f 177/2/4 178/2/4 180/2/4
f 180/2/4 178/2/4 181/2/4
f 179/2/4 180/2/4 183/2/4
f 183/2/4 180/2/4 184/2/4
f 182/2/4 183/2/4 185/2/4
f 185/2/4 183/2/4 186/2/4
f 187/3/4 188/3/4 189/3/4
f 189/3/4 188/3/4 190/3/4
f 191/1/4 192/1/4 193/1/4
f 193/1/4 192/1/4 194/1/4
f 194/1/4 195/1/4 196/1/4
f 196/1/4 195/1/4 197/1/4
f 196/2/4 197/2/4 199/2/4
f 199/2/4 197/2/4 200/2/4
f 198/2/4 199/2/4 201/2/4
f 201/2/4 199/2/4 202/2/4
f 203/3/4 204/3/4 205/3/4
f 205/3/4 204/3/4 206/3/4
f 207/3/4 208/3/4 209/3/4
f 209/3/4 208/3/4 210/3/4
f 211/1/4 212/1/4 213/1/4
f 213/1/4 212/1/4 214/1/4
f 213/2/4 214/2/4 215/2/4
f 215/2/4 214/2/4 216/2/4
f 217/3/4 218/3/4 219/3/4
f 219/3/4 218/3/4 220/3/4
f 221/3/4 222/3/4 223/3/4
f 223/3/4 222/3/4 224/3/4
f 228/3/5 226/3/5 225/3/5
f 229/3/5 226/3/5 228/3/5
f 232/3/5 228/3/5 227/3/5
f 232/3/5 230/3/5 229/3/5
f 232/3/5 229/3/5 228/3/5
f 233/3/5 230/3/5 232/3/5
f 235/3/5 232/3/5 231/3/5
f 235/3/5 234/3/5 233/3/5
f 235/3/5 233/3/5 232/3/5
f 236/3/5 234/3/5 235/3/5
f 237/3/5 234/3/5 236/3/5
f 238/3/5 234/3/5 237/3/5
f 239/3/5 237/3/5 236/3/5
f 240/3/5 237/3/5 239/3/5
f 241/3/5 237/3/5 240/3/5
f 242/3/5 237/3/5 241/3/5
f 243/3/5 241/3/5 240/3/5
f 244/3/5 241/3/5 243/3/5
f 245/3/6 246/3/6 248/3/6
f 248/3/6 246/3/6 249/3/6
f 249/3/6 246/3/6 250/3/6
f 250/3/6 246/3/6 251/3/6
f 251/3/6 246/3/6 252/3/6
f 247/3/6 248/3/6 255/3/6
f 248/3/6 249/3/6 255/3/6
f 255/3/6 249/3/6 256/3/6
f 256/3/6 249/3/6 257/3/6
f 251/3/6 252/3/6 258/3/6
f 252/3/6 253/3/6 258/3/6
f 258/3/6 253/3/6 259/3/6
f 259/3/6 253/3/6 260/3/6
f 255/3/6 256/3/6 262/3/6
f 254/3/6 255/3/6 262/3/6
f 262/3/6 256/3/6 263/3/6
f 260/3/6 261/3/6 264/3/6
f 259/3/6 260/3/6 264/3/6
f 264/3/6 261/3/6 265/3/6
f 254/3/6 262/3/6 266/3/6
f 265/3/6 261/3/6 267/3/6
f 254/3/6 266/3/6 268/3/6
f 267/3/6 261/3/6 271/3/6
f 268/3/6 269/3/6 272/3/6
f 254/3/6 268/3/6 272/3/6
f 272/3/6 269/3/6 273/3/6
f 273/3/6 269/3/6 274/3/6
f 270/3/6 271/3/6 277/3/6
f 271/3/6 261/3/6 278/3/6
f 277/3/6 271/3/6 278/3/6
f 278/3/6 261/3/6 279/3/6
f 274/3/6 275/3/6 280/3/6
f 273/3/6 274/3/6 280/3/6
f 280/3/6 275/3/6 281/3/6
f 281/3/6 275/3/6 282/3/6
f 276/3/6 277/3/6 284/3/6
f 277/3/6 278/3/6 284/3/6
f 284/3/6 278/3/6 285/3/6
f 285/3/6 278/3/6 286/3/6
f 282/3/6 283/3/6 287/3/6
f 281/3/6 282/3/6 287/3/6
f 284/3/6 285/3/6 287/3/6
f 283/3/6 284/3/6 287/3/6
f 287/3/6 285/3/6 288/3/6
f 289/2/6 290/2/6 293/2/6
f 290/1/6 291/1/6 294/1/6
f 293/2/6 290/2/6 294/2/6
f 294/1/6 291/1/6 295/1/6
f 292/2/6 293/2/6 298/2/6
f 298/2/6 293/2/6 299/2/6
f 295/1/6 296/1/6 300/1/6
f 300/1/6 296/1/6 301/1/6
f 297/2/6 298/2/6 303/2/6
f 303/2/6 298/2/6 304/2/6
f 301/1/6 302/1/6 305/1/6
f 305/1/6 302/1/6 306/1/6
f 303/1/6 304/1/6 307/1/6
f 307/1/6 304/1/6 308/1/6
f 305/2/6 306/2/6 311/2/6
f 311/2/6 306/2/6 312/2/6
f 308/1/6 309/1/6 313/1/6
f 313/1/6 309/1/6 314/1/6
f 310/2/6 311/2/6 316/2/6
f 316/2/6 311/2/6 317/2/6
f 314/1/6 315/1/6 318/1/6
f 315/2/6 316/2/6 319/2/6
f 318/1/6 315/1/6 319/1/6
f 319/2/6 316/2/6 320/2/6
f 321/2/6 322/2/6 325/2/6
f 322/1/6 323/1/6 326/1/6
f 325/2/6 322/2/6 326/2/6
f 326/1/6 323/1/6 327/1/6
f 324/2/6 325/2/6 329/2/6
f 329/2/6 325/2/6 330/2/6
f 327/1/6 328/1/6 331/1/6
f 331/1/6 328/1/6 332/1/6
f 329/1/6 330/1/6 333/1/6
f 333/1/6 330/1/6 334/1/6
f 331/2/6 332/2/6 336/2/6
f 336/2/6 332/2/6 337/2/6
f 334/1/6 335/1/6 338/1/6
f 335/2/6 336/2/6 339/2/6
f 338/1/6 335/1/6 339/1/6
f 339/2/6 336/2/6 340/2/6
f 341/2/6 342/2/6 344/2/6
f 342/1/6 343/1/6 345/1/6
f 344/2/6 342/2/6 345/2/6
f 345/1/6 343/1/6 346/1/6
f 344/1/6 345/1/6 347/1/6
f 345/2/6 346/2/6 348/2/6
f 347/1/6 345/1/6 348/1/6
f 348/2/6 346/2/6 349/2/6
