# MagicaVoxel @ Ephtracy

# material
mtllib crate-2.mtl
usemtl palette

# normals
vn -1 0 0
vn 1 0 0
vn 0 0 1
vn 0 0 -1
vn 0 -1 0
vn 0 1 0

# texcoords
vt 0.892578 0.5
vt 0.958984 0.5
vt 0.966797 0.5
vt 0.986328 0.5

# verts
v -4 1 3
v -4 1 1
v -4 1 -1
v -4 1 -3
v -4 3 3
v -4 3 1
v -4 3 -1
v -4 3 -3
v -4 4 3
v -4 4 -3
v -4 5 3
v -4 5 -3
v -3 0 3
v -3 0 -3
v -3 1 4
v -3 1 3
v -3 1 1
v -3 1 -1
v -3 1 -3
v -3 1 -4
v -3 3 4
v -3 3 3
v -3 3 2
v -3 3 1
v -3 3 -1
v -3 3 -2
v -3 3 -3
v -3 3 -4
v -3 4 4
v -3 4 3
v -3 4 2
v -3 4 -2
v -3 4 -3
v -3 4 -4
v -3 5 4
v -3 5 3
v -3 5 2
v -3 5 1
v -3 5 -1
v -3 5 -2
v -3 5 -3
v -3 5 -4
v -3 6 3
v -3 6 2
v -3 6 1
v -3 6 -1
v -3 6 -2
v -3 6 -3
v 2 3 4
v 2 3 3
v 2 3 -3
v 2 3 -4
v 2 4 4
v 2 4 3
v 2 4 -3
v 2 4 -4
v -2 3 4
v -2 3 3
v -2 3 -3
v -2 3 -4
v -2 4 4
v -2 4 3
v -2 4 -3
v -2 4 -4
v 3 0 3
v 3 0 -3
v 3 1 4
v 3 1 3
v 3 1 1
v 3 1 -1
v 3 1 -3
v 3 1 -4
v 3 3 4
v 3 3 3
v 3 3 2
v 3 3 1
v 3 3 -1
v 3 3 -2
v 3 3 -3
v 3 3 -4
v 3 4 4
v 3 4 3
v 3 4 2
v 3 4 -2
v 3 4 -3
v 3 4 -4
v 3 5 4
v 3 5 3
v 3 5 2
v 3 5 1
v 3 5 -1
v 3 5 -2
v 3 5 -3
v 3 5 -4
v 3 6 3
v 3 6 2
v 3 6 1
v 3 6 -1
v 3 6 -2
v 3 6 -3
v 4 1 3
v 4 1 1
v 4 1 -1
v 4 1 -3
v 4 3 3
v 4 3 1
v 4 3 -1
v 4 3 -3
v 4 4 3
v 4 4 -3
v 4 5 3
v 4 5 -3
v -3 1 4
v -3 3 4
v -3 4 4
v -3 5 4
v -2 1 4
v -2 3 4
v -2 4 4
v -2 5 4
v 2 1 4
v 2 3 4
v 2 4 4
v 2 5 4
v 3 1 4
v 3 3 4
v 3 4 4
v 3 5 4
v -4 1 3
v -4 3 3
v -4 4 3
v -4 5 3
v -3 0 3
v -3 1 3
v -3 3 3
v -3 4 3
v -3 5 3
v -3 6 3
v -2 1 3
v -2 3 3
v -2 4 3
v -2 5 3
v -2 6 3
v 2 1 3
v 2 3 3
v 2 4 3
v 2 5 3
v 2 6 3
v 3 0 3
v 3 1 3
v 3 3 3
v 3 4 3
v 3 5 3
v 3 6 3
v 4 1 3
v 4 3 3
v 4 4 3
v 4 5 3
v -4 1 -3
v -4 3 -3
v -4 4 -3
v -4 5 -3
v -3 0 -3
v -3 1 -3
v -3 3 -3
v -3 4 -3
v -3 5 -3
v -3 6 -3
v -2 1 -3
v -2 3 -3
v -2 4 -3
v -2 5 -3
v -2 6 -3
v 2 1 -3
v 2 3 -3
v 2 4 -3
v 2 5 -3
v 2 6 -3
v 3 0 -3
v 3 1 -3
v 3 3 -3
v 3 4 -3
v 3 5 -3
v 3 6 -3
v 4 1 -3
v 4 3 -3
v 4 4 -3
v 4 5 -3
v -3 1 -4
v -3 3 -4
v -3 4 -4
v -3 5 -4
v -2 1 -4
v -2 3 -4
v -2 4 -4
v -2 5 -4
v 2 1 -4
v 2 3 -4
v 2 4 -4
v 2 5 -4
v 3 1 -4
v 3 3 -4
v 3 4 -4
v 3 5 -4
v -3 0 3
v 3 0 3
v -3 0 -3
v 3 0 -3
v -3 1 4
v -2 1 4
v 2 1 4
v 3 1 4
v -4 1 3
v -3 1 3
v -2 1 3
v 2 1 3
v 3 1 3
v 4 1 3
v -4 1 1
v -3 1 1
v 3 1 1
v 4 1 1
v -4 1 -1
v -3 1 -1
v 3 1 -1
v 4 1 -1
v -4 1 -3
v -3 1 -3
v -2 1 -3
v 2 1 -3
v 3 1 -3
v 4 1 -3
v -3 1 -4
v -2 1 -4
v 2 1 -4
v 3 1 -4
v -2 4 4
v 2 4 4
v -4 4 3
v -3 4 3
v -2 4 3
v 2 4 3
v 3 4 3
v 4 4 3
v -3 4 2
v 3 4 2
v -3 4 -2
v 3 4 -2
v -4 4 -3
v -3 4 -3
v -2 4 -3
v 2 4 -3
v 3 4 -3
v 4 4 -3
v -2 4 -4
v 2 4 -4
v -2 3 4
v 2 3 4
v -4 3 3
v -3 3 3
v -2 3 3
v 2 3 3
v 3 3 3
v 4 3 3
v -3 3 2
v 3 3 2
v -4 3 1
v -3 3 1
v 3 3 1
v 4 3 1
v -4 3 -1
v -3 3 -1
v 3 3 -1
v 4 3 -1
v -3 3 -2
v 3 3 -2
v -4 3 -3
v -3 3 -3
v -2 3 -3
v 2 3 -3
v 3 3 -3
v 4 3 -3
v -2 3 -4
v 2 3 -4
v -3 5 4
v -2 5 4
v 2 5 4
v 3 5 4
v -4 5 3
v -3 5 3
v -2 5 3
v 2 5 3
v 3 5 3
v 4 5 3
v -3 5 2
v 3 5 2
v -3 5 1
v 3 5 1
v -3 5 -1
v 3 5 -1
v -3 5 -2
v 3 5 -2
v -4 5 -3
v -3 5 -3
v -2 5 -3
v 2 5 -3
v 3 5 -3
v 4 5 -3
v -3 5 -4
v -2 5 -4
v 2 5 -4
v 3 5 -4
v -3 6 3
v -2 6 3
v 2 6 3
v 3 6 3
v -3 6 2
v -2 6 2
v 2 6 2
v 3 6 2
v -3 6 1
v -2 6 1
v 2 6 1
v 3 6 1
v -3 6 -1
v -2 6 -1
v 2 6 -1
v 3 6 -1
v -3 6 -2
v -2 6 -2
v 2 6 -2
v 3 6 -2
v -3 6 -3
v -2 6 -3
v 2 6 -3
v 3 6 -3

# faces
f 5/2/1 2/2/1 1/2/1
f 6/1/1 3/1/1 2/1/1
f 6/2/1 2/2/1 5/2/1
f 7/2/1 4/2/1 3/2/1
f 7/1/1 3/1/1 6/1/1
f 8/2/1 4/2/1 7/2/1
f 11/4/1 10/4/1 9/4/1
f 12/4/1 10/4/1 11/4/1
f 16/4/1 14/4/1 13/4/1
f 17/4/1 14/4/1 16/4/1
f 18/4/1 14/4/1 17/4/1
f 19/4/1 14/4/1 18/4/1
f 21/4/1 16/4/1 15/4/1
f 22/4/1 16/4/1 21/4/1
f 27/4/1 20/4/1 19/4/1
f 28/4/1 20/4/1 27/4/1
f 29/2/1 22/2/1 21/2/1
f 30/4/1 23/4/1 22/4/1
f 30/2/1 22/2/1 29/2/1
f 31/1/1 26/1/1 25/1/1
f 31/4/1 23/4/1 30/4/1
f 31/1/1 24/1/1 23/1/1
f 31/1/1 25/1/1 24/1/1
f 32/4/1 27/4/1 26/4/1
f 32/1/1 26/1/1 31/1/1
f 33/2/1 28/2/1 27/2/1
f 33/4/1 27/4/1 32/4/1
f 34/2/1 28/2/1 33/2/1
f 35/4/1 30/4/1 29/4/1
f 36/4/1 30/4/1 35/4/1
f 41/4/1 34/4/1 33/4/1
f 42/4/1 34/4/1 41/4/1
f 43/4/1 37/4/1 36/4/1
f 44/2/1 38/2/1 37/2/1
f 44/4/1 37/4/1 43/4/1
f 45/3/1 39/3/1 38/3/1
f 45/2/1 38/2/1 44/2/1
f 46/2/1 40/2/1 39/2/1
f 46/3/1 39/3/1 45/3/1
f 47/4/1 41/4/1 40/4/1
f 47/2/1 40/2/1 46/2/1
f 48/4/1 41/4/1 47/4/1
f 53/2/1 50/2/1 49/2/1
f 54/2/1 50/2/1 53/2/1
f 55/2/1 52/2/1 51/2/1
f 56/2/1 52/2/1 55/2/1
f 57/2/2 58/2/2 61/2/2
f 61/2/2 58/2/2 62/2/2
f 59/2/2 60/2/2 63/2/2
f 63/2/2 60/2/2 64/2/2
f 65/4/2 66/4/2 68/4/2
f 68/4/2 66/4/2 69/4/2
f 69/4/2 66/4/2 70/4/2
f 70/4/2 66/4/2 71/4/2
f 67/4/2 68/4/2 73/4/2
f 73/4/2 68/4/2 74/4/2
f 71/4/2 72/4/2 79/4/2
f 79/4/2 72/4/2 80/4/2
f 73/2/2 74/2/2 81/2/2
f 74/4/2 75/4/2 82/4/2
f 81/2/2 74/2/2 82/2/2
f 77/1/2 78/1/2 83/1/2
f 82/4/2 75/4/2 83/4/2
f 75/1/2 76/1/2 83/1/2
f 76/1/2 77/1/2 83/1/2
f 78/4/2 79/4/2 84/4/2
f 83/1/2 78/1/2 84/1/2
f 79/2/2 80/2/2 85/2/2
f 84/4/2 79/4/2 85/4/2
f 85/2/2 80/2/2 86/2/2
f 81/4/2 82/4/2 87/4/2
f 87/4/2 82/4/2 88/4/2
f 85/4/2 86/4/2 93/4/2
f 93/4/2 86/4/2 94/4/2
f 88/4/2 89/4/2 95/4/2
f 89/2/2 90/2/2 96/2/2
f 95/4/2 89/4/2 96/4/2
f 90/3/2 91/3/2 97/3/2
f 96/2/2 90/2/2 97/2/2
f 91/2/2 92/2/2 98/2/2
f 97/3/2 91/3/2 98/3/2
f 92/4/2 93/4/2 99/4/2
f 98/2/2 92/2/2 99/2/2
f 99/4/2 93/4/2 100/4/2
f 101/2/2 102/2/2 105/2/2
f 102/1/2 103/1/2 106/1/2
f 105/2/2 102/2/2 106/2/2
f 103/2/2 104/2/2 107/2/2
f 106/1/2 103/1/2 107/1/2
f 107/2/2 104/2/2 108/2/2
f 109/4/2 110/4/2 111/4/2
f 111/4/2 110/4/2 112/4/2
f 117/4/3 114/4/3 113/4/3
f 118/2/3 115/2/3 114/2/3
f 118/4/3 114/4/3 117/4/3
f 119/4/3 116/4/3 115/4/3
f 119/2/3 115/2/3 118/2/3
f 120/4/3 116/4/3 119/4/3
f 121/2/3 118/2/3 117/2/3
f 122/2/3 118/2/3 121/2/3
f 123/2/3 120/2/3 119/2/3
f 124/2/3 120/2/3 123/2/3
f 125/4/3 122/4/3 121/4/3
f 126/2/3 123/2/3 122/2/3
f 126/4/3 122/4/3 125/4/3
f 127/4/3 124/4/3 123/4/3
f 127/2/3 123/2/3 126/2/3
f 128/4/3 124/4/3 127/4/3
f 134/2/3 130/2/3 129/2/3
f 135/2/3 130/2/3 134/2/3
f 136/4/3 132/4/3 131/4/3
f 137/4/3 132/4/3 136/4/3
f 139/4/3 134/4/3 133/4/3
f 142/4/3 138/4/3 137/4/3
f 143/4/3 138/4/3 142/4/3
f 144/4/3 139/4/3 133/4/3
f 145/1/3 141/1/3 140/1/3
f 146/1/3 141/1/3 145/1/3
f 147/2/3 143/2/3 142/2/3
f 148/2/3 143/2/3 147/2/3
f 149/4/3 144/4/3 133/4/3
f 150/4/3 144/4/3 149/4/3
f 153/4/3 148/4/3 147/4/3
f 154/4/3 148/4/3 153/4/3
f 155/2/3 151/2/3 150/2/3
f 156/2/3 151/2/3 155/2/3
f 157/4/3 153/4/3 152/4/3
f 158/4/3 153/4/3 157/4/3
f 159/2/4 160/2/4 164/2/4
f 164/2/4 160/2/4 165/2/4
f 161/4/4 162/4/4 166/4/4
f 166/4/4 162/4/4 167/4/4
f 163/4/4 164/4/4 169/4/4
f 167/4/4 168/4/4 172/4/4
f 172/4/4 168/4/4 173/4/4
f 163/4/4 169/4/4 174/4/4
f 170/1/4 171/1/4 175/1/4
f 175/1/4 171/1/4 176/1/4
f 172/2/4 173/2/4 177/2/4
f 177/2/4 173/2/4 178/2/4
f 163/4/4 174/4/4 179/4/4
f 179/4/4 174/4/4 180/4/4
f 177/4/4 178/4/4 183/4/4
f 183/4/4 178/4/4 184/4/4
f 180/2/4 181/2/4 185/2/4
f 185/2/4 181/2/4 186/2/4
f 182/4/4 183/4/4 187/4/4
f 187/4/4 183/4/4 188/4/4
f 189/4/4 190/4/4 193/4/4
f 190/2/4 191/2/4 194/2/4
f 193/4/4 190/4/4 194/4/4
f 191/4/4 192/4/4 195/4/4
f 194/2/4 191/2/4 195/2/4
f 195/4/4 192/4/4 196/4/4
f 193/2/4 194/2/4 197/2/4
f 197/2/4 194/2/4 198/2/4
f 195/2/4 196/2/4 199/2/4
f 199/2/4 196/2/4 200/2/4
f 197/4/4 198/4/4 201/4/4
f 198/2/4 199/2/4 202/2/4
f 201/4/4 198/4/4 202/4/4
f 199/4/4 200/4/4 203/4/4
f 202/2/4 199/2/4 203/2/4
f 203/4/4 200/4/4 204/4/4
f 207/4/5 206/4/5 205/4/5
f 208/4/5 206/4/5 207/4/5
f 214/4/5 210/4/5 209/4/5
f 215/2/5 211/2/5 210/2/5
f 215/4/5 210/4/5 214/4/5
f 216/4/5 212/4/5 211/4/5
f 216/2/5 211/2/5 215/2/5
f 217/4/5 212/4/5 216/4/5
f 219/2/5 214/2/5 213/2/5
f 220/2/5 214/2/5 219/2/5
f 221/2/5 218/2/5 217/2/5
f 222/2/5 218/2/5 221/2/5
f 223/1/5 220/1/5 219/1/5
f 224/1/5 220/1/5 223/1/5
f 225/1/5 222/1/5 221/1/5
f 226/1/5 222/1/5 225/1/5
f 227/2/5 224/2/5 223/2/5
f 228/2/5 224/2/5 227/2/5
f 231/2/5 226/2/5 225/2/5
f 232/2/5 226/2/5 231/2/5
f 233/4/5 229/4/5 228/4/5
f 234/2/5 230/2/5 229/2/5
f 234/4/5 229/4/5 233/4/5
f 235/4/5 231/4/5 230/4/5
f 235/2/5 230/2/5 234/2/5
f 236/4/5 231/4/5 235/4/5
f 241/2/5 238/2/5 237/2/5
f 242/2/5 238/2/5 241/2/5
f 245/4/5 240/4/5 239/4/5
f 246/4/5 244/4/5 243/4/5
f 247/4/5 245/4/5 239/4/5
f 248/4/5 244/4/5 246/4/5
f 249/4/5 247/4/5 239/4/5
f 250/4/5 247/4/5 249/4/5
f 253/4/5 244/4/5 248/4/5
f 254/4/5 244/4/5 253/4/5
f 255/2/5 252/2/5 251/2/5
f 256/2/5 252/2/5 255/2/5
f 257/2/6 258/2/6 261/2/6
f 261/2/6 258/2/6 262/2/6
f 259/2/6 260/2/6 265/2/6
f 263/2/6 264/2/6 266/2/6
f 259/2/6 265/2/6 267/2/6
f 267/2/6 265/2/6 268/2/6
f 266/2/6 264/2/6 269/2/6
f 269/2/6 264/2/6 270/2/6
f 267/1/6 268/1/6 271/1/6
f 271/1/6 268/1/6 272/1/6
f 269/1/6 270/1/6 273/1/6
f 273/1/6 270/1/6 274/1/6
f 271/2/6 272/2/6 275/2/6
f 273/2/6 274/2/6 276/2/6
f 271/2/6 275/2/6 277/2/6
f 277/2/6 275/2/6 278/2/6
f 276/2/6 274/2/6 281/2/6
f 281/2/6 274/2/6 282/2/6
f 279/2/6 280/2/6 283/2/6
f 283/2/6 280/2/6 284/2/6
f 285/4/6 286/4/6 290/4/6
f 286/2/6 287/2/6 291/2/6
f 290/4/6 286/4/6 291/4/6
f 287/4/6 288/4/6 292/4/6
f 291/2/6 287/2/6 292/2/6
f 292/4/6 288/4/6 293/4/6
f 289/4/6 290/4/6 295/4/6
f 293/4/6 294/4/6 296/4/6
f 289/4/6 295/4/6 297/4/6
f 296/4/6 294/4/6 298/4/6
f 289/4/6 297/4/6 299/4/6
f 298/4/6 294/4/6 300/4/6
f 289/4/6 299/4/6 301/4/6
f 300/4/6 294/4/6 302/4/6
f 289/4/6 301/4/6 303/4/6
f 303/4/6 301/4/6 304/4/6
f 302/4/6 294/4/6 307/4/6
f 307/4/6 294/4/6 308/4/6
f 304/4/6 305/4/6 309/4/6
f 305/2/6 306/2/6 310/2/6
f 309/4/6 305/4/6 310/4/6
f 306/4/6 307/4/6 311/4/6
f 310/2/6 306/2/6 311/2/6
f 311/4/6 307/4/6 312/4/6
f 313/4/6 314/4/6 317/4/6
f 314/2/6 315/2/6 318/2/6
f 317/4/6 314/4/6 318/4/6
f 315/4/6 316/4/6 319/4/6
f 318/2/6 315/2/6 319/2/6
f 319/4/6 316/4/6 320/4/6
f 317/2/6 318/2/6 321/2/6
f 318/1/6 319/1/6 322/1/6
f 321/2/6 318/2/6 322/2/6
f 319/2/6 320/2/6 323/2/6
f 322/1/6 319/1/6 323/1/6
f 323/2/6 320/2/6 324/2/6
f 321/3/6 322/3/6 325/3/6
f 322/1/6 323/1/6 326/1/6
f 325/3/6 322/3/6 326/3/6
f 323/3/6 324/3/6 327/3/6
f 326/1/6 323/1/6 327/1/6
f 327/3/6 324/3/6 328/3/6
f 325/2/6 326/2/6 329/2/6
f 326/1/6 327/1/6 330/1/6
f 329/2/6 326/2/6 330/2/6
f 327/2/6 328/2/6 331/2/6
f 330/1/6 327/1/6 331/1/6
f 331/2/6 328/2/6 332/2/6
f 329/4/6 330/4/6 333/4/6
f 330/2/6 331/2/6 334/2/6
f 333/4/6 330/4/6 334/4/6
f 331/4/6 332/4/6 335/4/6
f 334/2/6 331/2/6 335/2/6
f 335/4/6 332/4/6 336/4/6
