# MagicaVoxel @ Ephtracy

# group
g customize

# material
mtllib customize.mtl
usemtl palette

# normals
vn -1 0 0
vn 1 0 0
vn 0 0 1
vn 0 0 -1
vn 0 -1 0
vn 0 1 0

# texcoords
vt 0.306641 0.5
vt 0.958984 0.5
vt 0.962891 0.5
vt 0.966797 0.5
vt 0.974609 0.5
vt 0.978516 0.5
vt 0.982422 0.5
vt 0.986328 0.5
vt 0.990234 0.5

# verts
v -5 5 1
v -5 5 -1
v -5 6 1
v -5 6 -1
v -4 4 1
v -4 4 -1
v -4 5 1
v -4 5 -1
v -2 3 1
v -2 3 -1
v -2 4 1
v -2 4 -1
v -2 5 2
v -2 5 1
v -2 5 -1
v -2 5 -2
v -2 6 2
v -2 6 1
v -2 6 -1
v -2 6 -2
v -2 7 1
v -2 7 -1
v -1 6 2
v -1 6 1
v -1 6 -1
v -1 6 -2
v -1 7 2
v -1 7 1
v -1 7 -1
v -1 7 -2
v 0 0 1
v 0 0 -1
v 0 2 1
v 0 2 -1
v 0 4 1
v 0 4 -1
v 2 4 2
v 2 4 1
v 2 4 -1
v 2 4 -2
v 2 5 2
v 2 5 1
v 2 5 -1
v 2 5 -2
v 2 6 1
v 2 6 -1
v 2 7 2
v 2 7 1
v 2 7 -1
v 2 7 -2
v 2 8 2
v 2 8 1
v 2 8 -1
v 2 8 -2
v 3 3 3
v 3 3 -3
v 3 4 2
v 3 4 1
v 3 4 -1
v 3 4 -2
v 3 5 2
v 3 5 1
v 3 5 -1
v 3 5 -2
v 3 7 2
v 3 7 1
v 3 7 -1
v 3 7 -2
v 3 8 2
v 3 8 1
v 3 8 -1
v 3 8 -2
v 3 9 3
v 3 9 -3
v -1 3 1
v -1 3 -1
v -1 4 1
v -1 4 -1
v -1 6 1
v -1 6 -1
v -1 7 1
v -1 7 -1
v 0 5 2
v 0 5 1
v 0 5 -1
v 0 5 -2
v 0 6 2
v 0 6 1
v 0 6 -1
v 0 6 -2
v 1 6 2
v 1 6 1
v 1 6 -1
v 1 6 -2
v 1 7 2
v 1 7 1
v 1 7 -1
v 1 7 -2
v 2 0 1
v 2 0 -1
v 2 4 1
v 2 4 -1
v 2 5 1
v 2 5 -1
v 4 3 3
v 4 3 -3
v 4 4 2
v 4 4 -2
v 4 8 2
v 4 8 -2
v 4 9 3
v 4 9 -3
v 3 3 3
v 3 9 3
v 4 3 3
v 4 9 3
v -2 5 2
v -2 6 2
v -1 6 2
v -1 7 2
v 0 5 2
v 0 6 2
v 1 6 2
v 1 7 2
v 2 4 2
v 2 5 2
v 2 7 2
v 2 8 2
v 3 4 2
v 3 5 2
v 3 7 2
v 3 8 2
v -5 5 1
v -5 6 1
v -4 4 1
v -4 5 1
v -4 6 1
v -3 5 1
v -3 6 1
v -2 3 1
v -2 4 1
v -2 5 1
v -2 6 1
v -2 7 1
v -1 3 1
v -1 4 1
v -1 6 1
v -1 7 1
v 0 0 1
v 0 2 1
v 0 4 1
v 0 5 1
v 0 6 1
v 1 2 1
v 1 4 1
v 1 6 1
v 2 0 1
v 2 4 1
v 2 5 1
v 2 6 1
v 2 7 1
v 3 5 1
v 3 7 1
v -1 6 -1
v -1 7 -1
v 1 6 -1
v 1 7 -1
v 2 4 -1
v 2 5 -1
v 2 7 -1
v 2 8 -1
v 3 4 -1
v 3 5 -1
v 3 7 -1
v 3 8 -1
v -1 6 1
v -1 7 1
v 1 6 1
v 1 7 1
v 2 4 1
v 2 5 1
v 2 7 1
v 2 8 1
v 3 4 1
v 3 5 1
v 3 7 1
v 3 8 1
v -5 5 -1
v -5 6 -1
v -4 4 -1
v -4 5 -1
v -4 6 -1
v -3 5 -1
v -3 6 -1
v -2 3 -1
v -2 4 -1
v -2 5 -1
v -2 6 -1
v -2 7 -1
v -1 3 -1
v -1 4 -1
v -1 6 -1
v -1 7 -1
v 0 0 -1
v 0 2 -1
v 0 4 -1
v 0 5 -1
v 0 6 -1
v 1 2 -1
v 1 4 -1
v 1 6 -1
v 2 0 -1
v 2 4 -1
v 2 5 -1
v 2 6 -1
v 2 7 -1
v 3 5 -1
v 3 7 -1
v -2 5 -2
v -2 6 -2
v -1 6 -2
v -1 7 -2
v 0 5 -2
v 0 6 -2
v 1 6 -2
v 1 7 -2
v 2 4 -2
v 2 5 -2
v 2 7 -2
v 2 8 -2
v 3 4 -2
v 3 5 -2
v 3 7 -2
v 3 8 -2
v 3 3 -3
v 3 9 -3
v 4 3 -3
v 4 9 -3
v 0 0 1
v 2 0 1
v 0 0 -1
v 2 0 -1
v 3 3 3
v 4 3 3
v -2 3 1
v -1 3 1
v -2 3 -1
v -1 3 -1
v 3 3 -3
v 4 3 -3
v 2 4 2
v 3 4 2
v -4 4 1
v -2 4 1
v -1 4 1
v 0 4 1
v 2 4 1
v 3 4 1
v -4 4 -1
v -2 4 -1
v -1 4 -1
v 0 4 -1
v 2 4 -1
v 3 4 -1
v 2 4 -2
v 3 4 -2
v -2 5 2
v 0 5 2
v -5 5 1
v -4 5 1
v -2 5 1
v 0 5 1
v 2 5 1
v 3 5 1
v -5 5 -1
v -4 5 -1
v -2 5 -1
v 0 5 -1
v 2 5 -1
v 3 5 -1
v -2 5 -2
v 0 5 -2
v 0 6 2
v 1 6 2
v 0 6 1
v 1 6 1
v 0 6 -1
v 1 6 -1
v 0 6 -2
v 1 6 -2
v 2 7 2
v 3 7 2
v 2 7 1
v 3 7 1
v 2 7 -1
v 3 7 -1
v 2 7 -2
v 3 7 -2
v 2 5 2
v 3 5 2
v 2 5 1
v 3 5 1
v 2 5 -1
v 3 5 -1
v 2 5 -2
v 3 5 -2
v -2 6 2
v -1 6 2
v -5 6 1
v -4 6 1
v -3 6 1
v -2 6 1
v -1 6 1
v 1 6 1
v 2 6 1
v -5 6 -1
v -4 6 -1
v -3 6 -1
v -2 6 -1
v -1 6 -1
v 1 6 -1
v 2 6 -1
v -2 6 -2
v -1 6 -2
v -1 7 2
v 1 7 2
v -2 7 1
v -1 7 1
v 1 7 1
v 2 7 1
v 3 7 1
v -2 7 -1
v -1 7 -1
v 1 7 -1
v 2 7 -1
v 3 7 -1
v -1 7 -2
v 1 7 -2
v 2 8 2
v 3 8 2
v 2 8 1
v 3 8 1
v 2 8 -1
v 3 8 -1
v 2 8 -2
v 3 8 -2
v 3 9 3
v 4 9 3
v 3 9 -3
v 4 9 -3

# faces
f 3/2/1 2/2/1 1/2/1
f 4/2/1 2/2/1 3/2/1
f 7/4/1 6/4/1 5/4/1
f 8/4/1 6/4/1 7/4/1
f 11/5/1 10/5/1 9/5/1
f 12/5/1 10/5/1 11/5/1
f 17/8/1 14/8/1 13/8/1
f 18/8/1 14/8/1 17/8/1
f 19/8/1 16/8/1 15/8/1
f 20/8/1 16/8/1 19/8/1
f 21/7/1 19/7/1 18/7/1
f 22/7/1 19/7/1 21/7/1
f 27/8/1 24/8/1 23/8/1
f 28/8/1 24/8/1 27/8/1
f 29/8/1 26/8/1 25/8/1
f 30/8/1 26/8/1 29/8/1
f 33/6/1 32/6/1 31/6/1
f 34/6/1 32/6/1 33/6/1
f 35/5/1 34/5/1 33/5/1
f 36/5/1 34/5/1 35/5/1
f 41/8/1 38/8/1 37/8/1
f 42/8/1 38/8/1 41/8/1
f 43/8/1 40/8/1 39/8/1
f 44/8/1 40/8/1 43/8/1
f 48/8/1 46/8/1 45/8/1
f 49/8/1 46/8/1 48/8/1
f 51/8/1 48/8/1 47/8/1
f 52/8/1 48/8/1 51/8/1
f 53/8/1 50/8/1 49/8/1
f 54/8/1 50/8/1 53/8/1
f 57/9/1 56/9/1 55/9/1
f 58/9/1 56/9/1 57/9/1
f 59/9/1 56/9/1 58/9/1
f 60/9/1 56/9/1 59/9/1
f 61/9/1 57/9/1 55/9/1
f 62/7/1 59/7/1 58/7/1
f 63/7/1 59/7/1 62/7/1
f 64/9/1 56/9/1 60/9/1
f 65/9/1 61/9/1 55/9/1
f 65/7/1 62/7/1 61/7/1
f 66/7/1 62/7/1 65/7/1
f 67/7/1 64/7/1 63/7/1
f 68/9/1 56/9/1 64/9/1
f 68/7/1 64/7/1 67/7/1
f 69/9/1 65/9/1 55/9/1
f 70/7/1 67/7/1 66/7/1
f 71/7/1 67/7/1 70/7/1
f 72/9/1 56/9/1 68/9/1
f 73/9/1 71/9/1 70/9/1
f 73/9/1 72/9/1 71/9/1
f 73/9/1 69/9/1 55/9/1
f 73/9/1 70/9/1 69/9/1
f 74/9/1 56/9/1 72/9/1
f 74/9/1 72/9/1 73/9/1
f 75/5/2 76/5/2 77/5/2
f 77/5/2 76/5/2 78/5/2
f 79/7/2 80/7/2 81/7/2
f 81/7/2 80/7/2 82/7/2
f 83/8/2 84/8/2 87/8/2
f 87/8/2 84/8/2 88/8/2
f 85/8/2 86/8/2 89/8/2
f 89/8/2 86/8/2 90/8/2
f 91/8/2 92/8/2 95/8/2
f 95/8/2 92/8/2 96/8/2
f 93/8/2 94/8/2 97/8/2
f 97/8/2 94/8/2 98/8/2
f 99/6/2 100/6/2 101/6/2
f 101/6/2 100/6/2 102/6/2
f 101/6/2 102/6/2 103/6/2
f 103/6/2 102/6/2 104/6/2
f 105/9/2 106/9/2 107/9/2
f 107/9/2 106/9/2 108/9/2
f 105/9/2 107/9/2 109/9/2
f 107/7/2 108/7/2 109/7/2
f 108/9/2 106/9/2 110/9/2
f 109/7/2 108/7/2 110/7/2
f 105/9/2 109/9/2 111/9/2
f 109/9/2 110/9/2 111/9/2
f 110/9/2 106/9/2 112/9/2
f 111/9/2 110/9/2 112/9/2
f 115/9/3 114/9/3 113/9/3
f 116/9/3 114/9/3 115/9/3
f 119/8/3 118/8/3 117/8/3
f 121/8/3 119/8/3 117/8/3
f 121/8/3 120/8/3 119/8/3
f 122/8/3 120/8/3 121/8/3
f 123/8/3 120/8/3 122/8/3
f 124/8/3 120/8/3 123/8/3
f 129/8/3 126/8/3 125/8/3
f 130/8/3 126/8/3 129/8/3
f 131/8/3 128/8/3 127/8/3
f 132/8/3 128/8/3 131/8/3
f 136/2/3 134/2/3 133/2/3
f 137/2/3 134/2/3 136/2/3
f 138/4/3 136/4/3 135/4/3
f 138/3/3 137/3/3 136/3/3
f 139/3/3 137/3/3 138/3/3
f 141/4/3 138/4/3 135/4/3
f 141/4/3 139/4/3 138/4/3
f 142/4/3 139/4/3 141/4/3
f 143/4/3 139/4/3 142/4/3
f 145/5/3 141/5/3 140/5/3
f 146/4/3 142/4/3 141/4/3
f 146/5/3 141/5/3 145/5/3
f 147/7/3 144/7/3 143/7/3
f 148/7/3 144/7/3 147/7/3
f 151/4/3 142/4/3 146/4/3
f 152/4/3 142/4/3 151/4/3
f 154/6/3 150/6/3 149/6/3
f 154/5/3 151/5/3 150/5/3
f 155/4/3 153/4/3 152/4/3
f 155/5/3 151/5/3 154/5/3
f 155/4/3 152/4/3 151/4/3
f 156/4/3 153/4/3 155/4/3
f 157/6/3 154/6/3 149/6/3
f 157/6/3 155/6/3 154/6/3
f 157/6/3 156/6/3 155/6/3
f 158/6/3 156/6/3 157/6/3
f 159/6/3 156/6/3 158/6/3
f 160/6/3 156/6/3 159/6/3
f 162/8/3 160/8/3 159/8/3
f 162/8/3 161/8/3 160/8/3
f 163/8/3 161/8/3 162/8/3
f 166/8/3 165/8/3 164/8/3
f 167/8/3 165/8/3 166/8/3
f 172/8/3 169/8/3 168/8/3
f 173/8/3 169/8/3 172/8/3
f 174/8/3 171/8/3 170/8/3
f 175/8/3 171/8/3 174/8/3
f 176/8/4 177/8/4 178/8/4
f 178/8/4 177/8/4 179/8/4
f 180/8/4 181/8/4 184/8/4
f 184/8/4 181/8/4 185/8/4
f 182/8/4 183/8/4 186/8/4
f 186/8/4 183/8/4 187/8/4
f 188/2/4 189/2/4 191/2/4
f 191/2/4 189/2/4 192/2/4
f 190/4/4 191/4/4 193/4/4
f 191/3/4 192/3/4 193/3/4
f 193/3/4 192/3/4 194/3/4
f 190/4/4 193/4/4 196/4/4
f 193/4/4 194/4/4 196/4/4
f 196/4/4 194/4/4 197/4/4
f 197/4/4 194/4/4 198/4/4
f 195/5/4 196/5/4 200/5/4
f 196/4/4 197/4/4 201/4/4
f 200/5/4 196/5/4 201/5/4
f 198/7/4 199/7/4 202/7/4
f 202/7/4 199/7/4 203/7/4
f 201/4/4 197/4/4 206/4/4
f 206/4/4 197/4/4 207/4/4
f 204/6/4 205/6/4 209/6/4
f 205/5/4 206/5/4 209/5/4
f 207/4/4 208/4/4 210/4/4
f 209/5/4 206/5/4 210/5/4
f 206/4/4 207/4/4 210/4/4
f 210/4/4 208/4/4 211/4/4
f 204/6/4 209/6/4 212/6/4
f 209/6/4 210/6/4 212/6/4
f 210/6/4 211/6/4 212/6/4
f 212/6/4 211/6/4 213/6/4
f 213/6/4 211/6/4 214/6/4
f 214/6/4 211/6/4 215/6/4
f 214/8/4 215/8/4 217/8/4
f 215/8/4 216/8/4 217/8/4
f 217/8/4 216/8/4 218/8/4
f 219/8/4 220/8/4 221/8/4
f 219/8/4 221/8/4 223/8/4
f 221/8/4 222/8/4 223/8/4
f 223/8/4 222/8/4 224/8/4
f 224/8/4 222/8/4 225/8/4
f 225/8/4 222/8/4 226/8/4
f 227/8/4 228/8/4 231/8/4
f 231/8/4 228/8/4 232/8/4
f 229/8/4 230/8/4 233/8/4
f 233/8/4 230/8/4 234/8/4
f 235/9/4 236/9/4 237/9/4
f 237/9/4 236/9/4 238/9/4
f 241/6/5 240/6/5 239/6/5
f 242/6/5 240/6/5 241/6/5
f 247/5/5 246/5/5 245/5/5
f 248/5/5 246/5/5 247/5/5
f 249/9/5 244/9/5 243/9/5
f 250/9/5 244/9/5 249/9/5
f 257/8/5 252/8/5 251/8/5
f 258/8/5 252/8/5 257/8/5
f 259/4/5 254/4/5 253/4/5
f 260/4/5 254/4/5 259/4/5
f 261/4/5 256/4/5 255/4/5
f 262/4/5 256/4/5 261/4/5
f 265/8/5 264/8/5 263/8/5
f 266/8/5 264/8/5 265/8/5
f 271/8/5 268/8/5 267/8/5
f 272/8/5 268/8/5 271/8/5
f 275/2/5 270/2/5 269/2/5
f 276/2/5 270/2/5 275/2/5
f 279/8/5 274/8/5 273/8/5
f 280/8/5 274/8/5 279/8/5
f 281/8/5 278/8/5 277/8/5
f 282/8/5 278/8/5 281/8/5
f 285/8/5 284/8/5 283/8/5
f 286/8/5 284/8/5 285/8/5
f 289/8/5 288/8/5 287/8/5
f 290/8/5 288/8/5 289/8/5
f 293/8/5 292/8/5 291/8/5
f 294/8/5 292/8/5 293/8/5
f 297/8/5 296/8/5 295/8/5
f 298/8/5 296/8/5 297/8/5
f 299/8/6 300/8/6 301/8/6
f 301/8/6 300/8/6 302/8/6
f 303/8/6 304/8/6 305/8/6
f 305/8/6 304/8/6 306/8/6
f 307/8/6 308/8/6 312/8/6
f 312/8/6 308/8/6 313/8/6
f 309/2/6 310/2/6 316/2/6
f 310/3/6 311/3/6 317/3/6
f 316/2/6 310/2/6 317/2/6
f 311/4/6 312/4/6 318/4/6
f 317/3/6 311/3/6 318/3/6
f 318/4/6 312/4/6 319/4/6
f 313/4/6 314/4/6 320/4/6
f 314/6/6 315/6/6 321/6/6
f 320/4/6 314/4/6 321/4/6
f 321/6/6 315/6/6 322/6/6
f 319/8/6 320/8/6 323/8/6
f 323/8/6 320/8/6 324/8/6
f 325/8/6 326/8/6 328/8/6
f 328/8/6 326/8/6 329/8/6
f 327/7/6 328/7/6 332/7/6
f 332/7/6 328/7/6 333/7/6
f 330/8/6 331/8/6 335/8/6
f 335/8/6 331/8/6 336/8/6
f 333/8/6 334/8/6 337/8/6
f 337/8/6 334/8/6 338/8/6
f 339/8/6 340/8/6 341/8/6
f 341/8/6 340/8/6 342/8/6
f 343/8/6 344/8/6 345/8/6
f 345/8/6 344/8/6 346/8/6
f 347/9/6 348/9/6 349/9/6
f 349/9/6 348/9/6 350/9/6
