# 3ds Max Wavefront OBJ Exporter v0.97b - (c)2007 guruware
# File Created: 22.04.2018 20:55:07

#
# object default
#

v  -7.0000 2.0000 6.0000
v  -7.0000 0.0000 -6.0000
v  -7.0000 0.0000 6.0000
v  -7.0000 2.0000 -6.0000
v  -6.0000 2.0000 7.0000
v  -6.0000 0.0000 6.0000
v  -6.0000 0.0000 7.0000
v  -6.0000 2.0000 6.0000
v  -6.0000 2.0000 -6.0000
v  -6.0000 0.0000 -7.0000
v  -6.0000 0.0000 -6.0000
v  -6.0000 2.0000 -7.0000
v  6.0000 2.0000 6.0000
v  6.0000 1.0000 -6.0000
v  6.0000 1.0000 6.0000
v  6.0000 2.0000 -6.0000
v  -6.0000 1.0000 6.0000
v  -6.0000 1.0000 -6.0000
v  6.0000 0.0000 7.0000
v  6.0000 0.0000 6.0000
v  6.0000 2.0000 7.0000
v  6.0000 0.0000 -6.0000
v  6.0000 0.0000 -7.0000
v  6.0000 2.0000 -7.0000
v  7.0000 0.0000 6.0000
v  7.0000 0.0000 -6.0000
v  7.0000 2.0000 6.0000
v  7.0000 2.0000 -6.0000
# 28 vertices

vn -1.0000 0.0000 0.0000
vn 1.0000 0.0000 0.0000
vn 0.0000 0.0000 1.0000
vn 0.0000 0.0000 -1.0000
vn 0.0000 -1.0000 0.0000
vn 0.0000 1.0000 0.0000
# 6 vertex normals

vt 0.9785 0.5000 0.0000
vt 0.9941 0.5000 0.0000
# 2 texture coords

g default
s 1
f 1/1/1 2/1/1 3/1/1 
f 4/1/1 2/1/1 1/1/1 
f 5/1/1 6/1/1 7/1/1 
f 8/1/1 6/1/1 5/1/1 
f 9/1/1 10/1/1 11/1/1 
f 12/1/1 10/1/1 9/1/1 
f 13/1/1 14/1/1 15/1/1 
f 16/1/1 14/1/1 13/1/1 
f 17/1/2 18/1/2 8/1/2 
f 8/1/2 18/1/2 9/1/2 
f 19/1/2 20/1/2 21/1/2 
f 21/1/2 20/1/2 13/1/2 
f 22/1/2 23/1/2 16/1/2 
f 16/1/2 23/1/2 24/1/2 
f 25/1/2 26/1/2 27/1/2 
f 27/1/2 26/1/2 28/1/2 
f 19/1/3 5/1/3 7/1/3 
f 21/1/3 5/1/3 19/1/3 
f 6/1/3 1/1/3 3/1/3 
f 8/1/3 1/1/3 6/1/3 
f 25/1/3 13/1/3 20/1/3 
f 27/1/3 13/1/3 25/1/3 
f 14/1/3 9/1/3 18/1/3 
f 16/1/3 9/1/3 14/1/3 
f 17/1/4 8/1/4 15/1/4 
f 15/1/4 8/1/4 13/1/4 
f 2/1/4 4/1/4 11/1/4 
f 11/1/4 4/1/4 9/1/4 
f 22/1/4 16/1/4 26/1/4 
f 26/1/4 16/1/4 28/1/4 
f 10/1/4 12/1/4 23/1/4 
f 23/1/4 12/1/4 24/1/4 
f 6/1/5 19/1/5 7/1/5 
f 20/1/5 19/1/5 6/1/5 
f 2/1/5 6/1/5 3/1/5 
f 11/2/5 20/2/5 6/2/5 
f 11/1/5 6/1/5 2/1/5 
f 22/1/5 25/1/5 20/1/5 
f 22/2/5 20/2/5 11/2/5 
f 26/1/5 25/1/5 22/1/5 
f 10/1/5 22/1/5 11/1/5 
f 23/1/5 22/1/5 10/1/5 
f 5/1/6 21/1/6 8/1/6 
f 8/1/6 21/1/6 13/1/6 
f 1/1/6 8/1/6 4/1/6 
f 4/1/6 8/1/6 9/1/6 
f 13/1/6 27/1/6 16/1/6 
f 16/1/6 27/1/6 28/1/6 
f 9/1/6 16/1/6 12/1/6 
f 12/1/6 16/1/6 24/1/6 
# 50 faces

