# MagicaVoxel @ Ephtracy

# material
mtllib display.mtl
usemtl palette

# normals
vn -1 0 0
vn 1 0 0
vn 0 0 1
vn 0 0 -1
vn 0 -1 0
vn 0 1 0

# texcoords
vt 0.978516 0.5

# verts
v -7 2 -6
v -7 2 -8
v -7 14 -6
v -7 14 -8
v -6 1 -6
v -6 1 -8
v -6 2 -6
v -6 2 -8
v -6 14 -6
v -6 14 -8
v -6 15 -6
v -6 15 -8
v 6 2 -6
v 6 2 -8
v 6 14 -6
v 6 14 -8
v -6 2 -6
v -6 2 -8
v -6 14 -6
v -6 14 -8
v 6 1 -6
v 6 1 -8
v 6 2 -6
v 6 2 -8
v 6 14 -6
v 6 14 -8
v 6 15 -6
v 6 15 -8
v 7 2 -6
v 7 2 -8
v 7 14 -6
v 7 14 -8
v -7 2 -6
v -7 14 -6
v -6 1 -6
v -6 2 -6
v -6 14 -6
v -6 15 -6
v 6 1 -6
v 6 2 -6
v 6 14 -6
v 6 15 -6
v 7 2 -6
v 7 14 -6
v -7 2 -8
v -7 14 -8
v -6 1 -8
v -6 2 -8
v -6 14 -8
v -6 15 -8
v 6 1 -8
v 6 2 -8
v 6 14 -8
v 6 15 -8
v 7 2 -8
v 7 14 -8
v -6 1 -6
v 6 1 -6
v -6 1 -8
v 6 1 -8
v -7 2 -6
v -6 2 -6
v 6 2 -6
v 7 2 -6
v -7 2 -8
v -6 2 -8
v 6 2 -8
v 7 2 -8
v -6 14 -6
v 6 14 -6
v -6 14 -8
v 6 14 -8
v -6 2 -6
v 6 2 -6
v -6 2 -8
v 6 2 -8
v -7 14 -6
v -6 14 -6
v 6 14 -6
v 7 14 -6
v -7 14 -8
v -6 14 -8
v 6 14 -8
v 7 14 -8
v -6 15 -6
v 6 15 -6
v -6 15 -8
v 6 15 -8

# faces
f 3/1/1 2/1/1 1/1/1
f 4/1/1 2/1/1 3/1/1
f 7/1/1 6/1/1 5/1/1
f 8/1/1 6/1/1 7/1/1
f 11/1/1 10/1/1 9/1/1
f 12/1/1 10/1/1 11/1/1
f 15/1/1 14/1/1 13/1/1
f 16/1/1 14/1/1 15/1/1
f 17/1/2 18/1/2 19/1/2
f 19/1/2 18/1/2 20/1/2
f 21/1/2 22/1/2 23/1/2
f 23/1/2 22/1/2 24/1/2
f 25/1/2 26/1/2 27/1/2
f 27/1/2 26/1/2 28/1/2
f 29/1/2 30/1/2 31/1/2
f 31/1/2 30/1/2 32/1/2
f 36/1/3 34/1/3 33/1/3
f 37/1/3 34/1/3 36/1/3
f 39/1/3 36/1/3 35/1/3
f 40/1/3 36/1/3 39/1/3
f 41/1/3 38/1/3 37/1/3
f 42/1/3 38/1/3 41/1/3
f 43/1/3 41/1/3 40/1/3
f 44/1/3 41/1/3 43/1/3
f 45/1/4 46/1/4 48/1/4
f 48/1/4 46/1/4 49/1/4
f 47/1/4 48/1/4 51/1/4
f 51/1/4 48/1/4 52/1/4
f 49/1/4 50/1/4 53/1/4
f 53/1/4 50/1/4 54/1/4
f 52/1/4 53/1/4 55/1/4
f 55/1/4 53/1/4 56/1/4
f 59/1/5 58/1/5 57/1/5
f 60/1/5 58/1/5 59/1/5
f 65/1/5 62/1/5 61/1/5
f 66/1/5 62/1/5 65/1/5
f 67/1/5 64/1/5 63/1/5
f 68/1/5 64/1/5 67/1/5
f 71/1/5 70/1/5 69/1/5
f 72/1/5 70/1/5 71/1/5
f 73/1/6 74/1/6 75/1/6
f 75/1/6 74/1/6 76/1/6
f 77/1/6 78/1/6 81/1/6
f 81/1/6 78/1/6 82/1/6
f 79/1/6 80/1/6 83/1/6
f 83/1/6 80/1/6 84/1/6
f 85/1/6 86/1/6 87/1/6
f 87/1/6 86/1/6 88/1/6
