# MagicaVoxel @ Ephtracy

# material
mtllib door-rightside.mtl
usemtl palette

# normals
vn -1 0 0
vn 1 0 0
vn 0 0 1
vn 0 0 -1
vn 0 -1 0
vn 0 1 0

# texcoords
vt 0.0214844 0.5
vt 0.974609 0.5
vt 0.978516 0.5
vt 0.994141 0.5

# verts
v 0 3 1
v 0 3 -0
v 0 4 1
v 0 4 -0
v 0 6 1
v 0 6 -0
v 0 8 1
v 0 8 -0
v 0 10 1
v 0 10 -0
v 0 12 1
v 0 12 -0
v 0 14 1
v 0 14 -0
v 0 16 1
v 0 16 -0
v 0 18 1
v 0 18 -0
v 0 20 1
v 0 20 -0
v 0 22 1
v 0 22 -0
v 0 24 1
v 0 24 -0
v 0 26 1
v 0 26 -0
v 0 28 1
v 0 28 -0
v 0 29 1
v 0 29 -0
v 11 3 1
v 11 3 -0
v 11 4 1
v 11 4 -0
v 11 28 1
v 11 28 -0
v 11 29 1
v 11 29 -0
v 12 4 1
v 12 4 -0
v 12 5 1
v 12 5 -0
v 12 27 1
v 12 27 -0
v 12 28 1
v 12 28 -0
v 13 5 1
v 13 5 -0
v 13 27 1
v 13 27 -0
v 0 3 1
v 0 4 1
v 0 6 1
v 0 8 1
v 0 10 1
v 0 12 1
v 0 14 1
v 0 16 1
v 0 18 1
v 0 20 1
v 0 22 1
v 0 24 1
v 0 26 1
v 0 28 1
v 0 29 1
v 1 4 1
v 1 5 1
v 1 6 1
v 1 7 1
v 1 8 1
v 1 9 1
v 1 10 1
v 1 11 1
v 1 12 1
v 1 13 1
v 1 14 1
v 1 15 1
v 1 16 1
v 1 17 1
v 1 18 1
v 1 19 1
v 1 20 1
v 1 21 1
v 1 22 1
v 1 23 1
v 1 24 1
v 1 25 1
v 1 26 1
v 1 27 1
v 1 28 1
v 1 29 1
v 2 3 1
v 2 5 1
v 2 7 1
v 2 9 1
v 2 11 1
v 2 13 1
v 2 15 1
v 2 17 1
v 2 19 1
v 2 21 1
v 2 23 1
v 2 25 1
v 2 27 1
v 2 29 1
v 3 4 1
v 3 6 1
v 3 7 1
v 3 8 1
v 3 9 1
v 3 10 1
v 3 11 1
v 3 12 1
v 3 13 1
v 3 14 1
v 3 15 1
v 3 16 1
v 3 17 1
v 3 18 1
v 3 19 1
v 3 20 1
v 3 21 1
v 3 22 1
v 3 23 1
v 3 24 1
v 3 25 1
v 3 28 1
v 4 5 1
v 4 6 1
v 4 7 1
v 4 8 1
v 4 9 1
v 4 10 1
v 4 11 1
v 4 12 1
v 4 13 1
v 4 14 1
v 4 15 1
v 4 16 1
v 4 17 1
v 4 18 1
v 4 19 1
v 4 20 1
v 4 21 1
v 4 22 1
v 4 23 1
v 4 24 1
v 4 25 1
v 4 27 1
v 11 3 1
v 11 4 1
v 11 5 1
v 11 27 1
v 11 28 1
v 11 29 1
v 12 4 1
v 12 5 1
v 12 27 1
v 12 28 1
v 13 5 1
v 13 27 1
v 0 3 -0
v 0 4 -0
v 0 6 -0
v 0 8 -0
v 0 10 -0
v 0 12 -0
v 0 14 -0
v 0 16 -0
v 0 18 -0
v 0 20 -0
v 0 22 -0
v 0 24 -0
v 0 26 -0
v 0 28 -0
v 0 29 -0
v 1 4 -0
v 1 5 -0
v 1 6 -0
v 1 7 -0
v 1 8 -0
v 1 9 -0
v 1 10 -0
v 1 11 -0
v 1 12 -0
v 1 13 -0
v 1 14 -0
v 1 15 -0
v 1 16 -0
v 1 17 -0
v 1 18 -0
v 1 19 -0
v 1 20 -0
v 1 21 -0
v 1 22 -0
v 1 23 -0
v 1 24 -0
v 1 25 -0
v 1 26 -0
v 1 27 -0
v 1 28 -0
v 1 29 -0
v 2 3 -0
v 2 5 -0
v 2 7 -0
v 2 9 -0
v 2 11 -0
v 2 13 -0
v 2 15 -0
v 2 17 -0
v 2 19 -0
v 2 21 -0
v 2 23 -0
v 2 25 -0
v 2 27 -0
v 2 29 -0
v 3 4 -0
v 3 6 -0
v 3 7 -0
v 3 8 -0
v 3 9 -0
v 3 10 -0
v 3 11 -0
v 3 12 -0
v 3 13 -0
v 3 14 -0
v 3 15 -0
v 3 16 -0
v 3 17 -0
v 3 18 -0
v 3 19 -0
v 3 20 -0
v 3 21 -0
v 3 22 -0
v 3 23 -0
v 3 24 -0
v 3 25 -0
v 3 28 -0
v 4 5 -0
v 4 6 -0
v 4 7 -0
v 4 8 -0
v 4 9 -0
v 4 10 -0
v 4 11 -0
v 4 12 -0
v 4 13 -0
v 4 14 -0
v 4 15 -0
v 4 16 -0
v 4 17 -0
v 4 18 -0
v 4 19 -0
v 4 20 -0
v 4 21 -0
v 4 22 -0
v 4 23 -0
v 4 24 -0
v 4 25 -0
v 4 27 -0
v 11 3 -0
v 11 4 -0
v 11 5 -0
v 11 27 -0
v 11 28 -0
v 11 29 -0
v 12 4 -0
v 12 5 -0
v 12 27 -0
v 12 28 -0
v 13 5 -0
v 13 27 -0
v 0 3 1
v 2 3 1
v 11 3 1
v 0 3 -0
v 2 3 -0
v 11 3 -0
v 11 4 1
v 12 4 1
v 11 4 -0
v 12 4 -0
v 12 5 1
v 13 5 1
v 12 5 -0
v 13 5 -0
v 12 27 1
v 13 27 1
v 12 27 -0
v 13 27 -0
v 11 28 1
v 12 28 1
v 11 28 -0
v 12 28 -0
v 0 29 1
v 1 29 1
v 2 29 1
v 11 29 1
v 0 29 -0
v 1 29 -0
v 2 29 -0
v 11 29 -0

# faces
f 3/1/1 2/1/1 1/1/1
f 4/1/1 2/1/1 3/1/1
f 5/4/1 4/4/1 3/4/1
f 6/4/1 4/4/1 5/4/1
f 7/1/1 6/1/1 5/1/1
f 8/1/1 6/1/1 7/1/1
f 9/4/1 8/4/1 7/4/1
f 10/4/1 8/4/1 9/4/1
f 11/1/1 10/1/1 9/1/1
f 12/1/1 10/1/1 11/1/1
f 13/4/1 12/4/1 11/4/1
f 14/4/1 12/4/1 13/4/1
f 15/1/1 14/1/1 13/1/1
f 16/1/1 14/1/1 15/1/1
f 17/4/1 16/4/1 15/4/1
f 18/4/1 16/4/1 17/4/1
f 19/1/1 18/1/1 17/1/1
f 20/1/1 18/1/1 19/1/1
f 21/4/1 20/4/1 19/4/1
f 22/4/1 20/4/1 21/4/1
f 23/1/1 22/1/1 21/1/1
f 24/1/1 22/1/1 23/1/1
f 25/4/1 24/4/1 23/4/1
f 26/4/1 24/4/1 25/4/1
f 27/1/1 26/1/1 25/1/1
f 28/1/1 26/1/1 27/1/1
f 29/4/1 28/4/1 27/4/1
f 30/4/1 28/4/1 29/4/1
f 31/2/2 32/2/2 33/2/2
f 33/2/2 32/2/2 34/2/2
f 35/2/2 36/2/2 37/2/2
f 37/2/2 36/2/2 38/2/2
f 39/2/2 40/2/2 41/2/2
f 41/2/2 40/2/2 42/2/2
f 43/2/2 44/2/2 45/2/2
f 45/2/2 44/2/2 46/2/2
f 47/2/2 48/2/2 49/2/2
f 49/2/2 48/2/2 50/2/2
f 66/1/3 52/1/3 51/1/3
f 66/4/3 53/4/3 52/4/3
f 67/4/3 53/4/3 66/4/3
f 68/1/3 54/1/3 53/1/3
f 68/4/3 53/4/3 67/4/3
f 69/1/3 54/1/3 68/1/3
f 70/4/3 55/4/3 54/4/3
f 70/1/3 54/1/3 69/1/3
f 71/4/3 55/4/3 70/4/3
f 72/1/3 56/1/3 55/1/3
f 72/4/3 55/4/3 71/4/3
f 73/1/3 56/1/3 72/1/3
f 74/4/3 57/4/3 56/4/3
f 74/1/3 56/1/3 73/1/3
f 75/4/3 57/4/3 74/4/3
f 76/1/3 58/1/3 57/1/3
f 76/4/3 57/4/3 75/4/3
f 77/1/3 58/1/3 76/1/3
f 78/4/3 59/4/3 58/4/3
f 78/1/3 58/1/3 77/1/3
f 79/4/3 59/4/3 78/4/3
f 80/1/3 60/1/3 59/1/3
f 80/4/3 59/4/3 79/4/3
f 81/1/3 60/1/3 80/1/3
f 82/4/3 61/4/3 60/4/3
f 82/1/3 60/1/3 81/1/3
f 83/4/3 61/4/3 82/4/3
f 84/1/3 62/1/3 61/1/3
f 84/4/3 61/4/3 83/4/3
f 85/1/3 62/1/3 84/1/3
f 86/4/3 63/4/3 62/4/3
f 86/1/3 62/1/3 85/1/3
f 87/4/3 63/4/3 86/4/3
f 88/1/3 64/1/3 63/1/3
f 88/4/3 63/4/3 87/4/3
f 89/1/3 64/1/3 88/1/3
f 90/4/3 65/4/3 64/4/3
f 90/1/3 64/1/3 89/1/3
f 91/4/3 65/4/3 90/4/3
f 92/1/3 67/1/3 66/1/3
f 92/1/3 66/1/3 51/1/3
f 93/4/3 69/4/3 68/4/3
f 93/1/3 67/1/3 92/1/3
f 93/4/3 68/4/3 67/4/3
f 94/1/3 71/1/3 70/1/3
f 94/4/3 69/4/3 93/4/3
f 94/1/3 70/1/3 69/1/3
f 95/4/3 73/4/3 72/4/3
f 95/1/3 71/1/3 94/1/3
f 95/4/3 72/4/3 71/4/3
f 96/1/3 75/1/3 74/1/3
f 96/4/3 73/4/3 95/4/3
f 96/1/3 74/1/3 73/1/3
f 97/4/3 77/4/3 76/4/3
f 97/1/3 75/1/3 96/1/3
f 97/4/3 76/4/3 75/4/3
f 98/1/3 79/1/3 78/1/3
f 98/4/3 77/4/3 97/4/3
f 98/1/3 78/1/3 77/1/3
f 99/4/3 81/4/3 80/4/3
f 99/1/3 79/1/3 98/1/3
f 99/4/3 80/4/3 79/4/3
f 100/1/3 83/1/3 82/1/3
f 100/4/3 81/4/3 99/4/3
f 100/1/3 82/1/3 81/1/3
f 101/4/3 85/4/3 84/4/3
f 101/1/3 83/1/3 100/1/3
f 101/4/3 84/4/3 83/4/3
f 102/1/3 87/1/3 86/1/3
f 102/4/3 85/4/3 101/4/3
f 102/1/3 86/1/3 85/1/3
f 103/4/3 89/4/3 88/4/3
f 103/1/3 87/1/3 102/1/3
f 103/4/3 88/4/3 87/4/3
f 104/1/3 91/1/3 90/1/3
f 104/4/3 89/4/3 103/4/3
f 104/1/3 90/1/3 89/1/3
f 105/1/3 91/1/3 104/1/3
f 106/2/3 102/2/3 101/2/3
f 106/2/3 101/2/3 100/2/3
f 106/2/3 105/2/3 104/2/3
f 106/2/3 104/2/3 103/2/3
f 106/2/3 103/2/3 102/2/3
f 106/2/3 100/2/3 99/2/3
f 106/2/3 99/2/3 98/2/3
f 106/2/3 98/2/3 97/2/3
f 106/2/3 97/2/3 96/2/3
f 106/2/3 96/2/3 95/2/3
f 106/2/3 95/2/3 94/2/3
f 106/2/3 94/2/3 93/2/3
f 106/2/3 93/2/3 92/2/3
f 107/2/3 105/2/3 106/2/3
f 108/2/3 105/2/3 107/2/3
f 109/2/3 105/2/3 108/2/3
f 110/2/3 105/2/3 109/2/3
f 111/2/3 105/2/3 110/2/3
f 112/2/3 105/2/3 111/2/3
f 113/2/3 105/2/3 112/2/3
f 114/2/3 105/2/3 113/2/3
f 115/2/3 105/2/3 114/2/3
f 116/2/3 105/2/3 115/2/3
f 117/2/3 105/2/3 116/2/3
f 118/2/3 105/2/3 117/2/3
f 119/2/3 105/2/3 118/2/3
f 120/2/3 105/2/3 119/2/3
f 121/2/3 105/2/3 120/2/3
f 122/2/3 105/2/3 121/2/3
f 123/2/3 105/2/3 122/2/3
f 124/2/3 105/2/3 123/2/3
f 125/2/3 105/2/3 124/2/3
f 126/2/3 105/2/3 125/2/3
f 127/2/3 105/2/3 126/2/3
f 128/3/3 107/3/3 106/3/3
f 129/2/3 108/2/3 107/2/3
f 129/3/3 107/3/3 128/3/3
f 130/3/3 109/3/3 108/3/3
f 130/2/3 108/2/3 129/2/3
f 131/2/3 110/2/3 109/2/3
f 131/3/3 109/3/3 130/3/3
f 132/3/3 111/3/3 110/3/3
f 132/2/3 110/2/3 131/2/3
f 133/2/3 112/2/3 111/2/3
f 133/3/3 111/3/3 132/3/3
f 134/3/3 113/3/3 112/3/3
f 134/2/3 112/2/3 133/2/3
f 135/2/3 114/2/3 113/2/3
f 135/3/3 113/3/3 134/3/3
f 136/3/3 115/3/3 114/3/3
f 136/2/3 114/2/3 135/2/3
f 137/2/3 116/2/3 115/2/3
f 137/3/3 115/3/3 136/3/3
f 138/3/3 117/3/3 116/3/3
f 138/2/3 116/2/3 137/2/3
f 139/2/3 118/2/3 117/2/3
f 139/3/3 117/3/3 138/3/3
f 140/3/3 119/3/3 118/3/3
f 140/2/3 118/2/3 139/2/3
f 141/2/3 120/2/3 119/2/3
f 141/3/3 119/3/3 140/3/3
f 142/3/3 121/3/3 120/3/3
f 142/2/3 120/2/3 141/2/3
f 143/2/3 122/2/3 121/2/3
f 143/3/3 121/3/3 142/3/3
f 144/3/3 123/3/3 122/3/3
f 144/2/3 122/2/3 143/2/3
f 145/2/3 124/2/3 123/2/3
f 145/3/3 123/3/3 144/3/3
f 146/3/3 125/3/3 124/3/3
f 146/2/3 124/2/3 145/2/3
f 147/2/3 126/2/3 125/2/3
f 147/3/3 125/3/3 146/3/3
f 148/3/3 127/3/3 126/3/3
f 148/2/3 126/2/3 147/2/3
f 149/3/3 127/3/3 148/3/3
f 150/2/3 106/2/3 92/2/3
f 151/3/3 128/3/3 106/3/3
f 151/2/3 106/2/3 150/2/3
f 152/2/3 129/2/3 128/2/3
f 152/3/3 128/3/3 151/3/3
f 152/2/3 130/2/3 129/2/3
f 152/2/3 149/2/3 148/2/3
f 152/2/3 148/2/3 147/2/3
f 152/2/3 147/2/3 146/2/3
f 152/2/3 146/2/3 145/2/3
f 152/2/3 145/2/3 144/2/3
f 152/2/3 144/2/3 143/2/3
f 152/2/3 143/2/3 142/2/3
f 152/2/3 142/2/3 141/2/3
f 152/2/3 141/2/3 140/2/3
f 152/2/3 140/2/3 139/2/3
f 152/2/3 139/2/3 138/2/3
f 152/2/3 138/2/3 137/2/3
f 152/2/3 137/2/3 136/2/3
f 152/2/3 136/2/3 135/2/3
f 152/2/3 135/2/3 134/2/3
f 152/2/3 134/2/3 133/2/3
f 152/2/3 133/2/3 132/2/3
f 152/2/3 132/2/3 131/2/3
f 152/2/3 131/2/3 130/2/3
f 153/3/3 127/3/3 149/3/3
f 153/2/3 149/2/3 152/2/3
f 154/2/3 105/2/3 127/2/3
f 154/3/3 127/3/3 153/3/3
f 155/2/3 105/2/3 154/2/3
f 156/2/3 152/2/3 151/2/3
f 157/3/3 153/3/3 152/3/3
f 157/2/3 152/2/3 156/2/3
f 158/2/3 154/2/3 153/2/3
f 158/3/3 153/3/3 157/3/3
f 159/2/3 154/2/3 158/2/3
f 160/2/3 158/2/3 157/2/3
f 161/2/3 158/2/3 160/2/3
f 162/1/4 163/1/4 177/1/4
f 163/4/4 164/4/4 177/4/4
f 177/4/4 164/4/4 178/4/4
f 164/1/4 165/1/4 179/1/4
f 178/4/4 164/4/4 179/4/4
f 179/1/4 165/1/4 180/1/4
f 165/4/4 166/4/4 181/4/4
f 180/1/4 165/1/4 181/1/4
f 181/4/4 166/4/4 182/4/4
f 166/1/4 167/1/4 183/1/4
f 182/4/4 166/4/4 183/4/4
f 183/1/4 167/1/4 184/1/4
f 167/4/4 168/4/4 185/4/4
f 184/1/4 167/1/4 185/1/4
f 185/4/4 168/4/4 186/4/4
f 168/1/4 169/1/4 187/1/4
f 186/4/4 168/4/4 187/4/4
f 187/1/4 169/1/4 188/1/4
f 169/4/4 170/4/4 189/4/4
f 188/1/4 169/1/4 189/1/4
f 189/4/4 170/4/4 190/4/4
f 170/1/4 171/1/4 191/1/4
f 190/4/4 170/4/4 191/4/4
f 191/1/4 171/1/4 192/1/4
f 171/4/4 172/4/4 193/4/4
f 192/1/4 171/1/4 193/1/4
f 193/4/4 172/4/4 194/4/4
f 172/1/4 173/1/4 195/1/4
f 194/4/4 172/4/4 195/4/4
f 195/1/4 173/1/4 196/1/4
f 173/4/4 174/4/4 197/4/4
f 196/1/4 173/1/4 197/1/4
f 197/4/4 174/4/4 198/4/4
f 174/1/4 175/1/4 199/1/4
f 198/4/4 174/4/4 199/4/4
f 199/1/4 175/1/4 200/1/4
f 175/4/4 176/4/4 201/4/4
f 200/1/4 175/1/4 201/1/4
f 201/4/4 176/4/4 202/4/4
f 177/1/4 178/1/4 203/1/4
f 162/1/4 177/1/4 203/1/4
f 179/4/4 180/4/4 204/4/4
f 203/1/4 178/1/4 204/1/4
f 178/4/4 179/4/4 204/4/4
f 181/1/4 182/1/4 205/1/4
f 204/4/4 180/4/4 205/4/4
f 180/1/4 181/1/4 205/1/4
f 183/4/4 184/4/4 206/4/4
f 205/1/4 182/1/4 206/1/4
f 182/4/4 183/4/4 206/4/4
f 185/1/4 186/1/4 207/1/4
f 206/4/4 184/4/4 207/4/4
f 184/1/4 185/1/4 207/1/4
f 187/4/4 188/4/4 208/4/4
f 207/1/4 186/1/4 208/1/4
f 186/4/4 187/4/4 208/4/4
f 189/1/4 190/1/4 209/1/4
f 208/4/4 188/4/4 209/4/4
f 188/1/4 189/1/4 209/1/4
f 191/4/4 192/4/4 210/4/4
f 209/1/4 190/1/4 210/1/4
f 190/4/4 191/4/4 210/4/4
f 193/1/4 194/1/4 211/1/4
f 210/4/4 192/4/4 211/4/4
f 192/1/4 193/1/4 211/1/4
f 195/4/4 196/4/4 212/4/4
f 211/1/4 194/1/4 212/1/4
f 194/4/4 195/4/4 212/4/4
f 197/1/4 198/1/4 213/1/4
f 212/4/4 196/4/4 213/4/4
f 196/1/4 197/1/4 213/1/4
f 199/4/4 200/4/4 214/4/4
f 213/1/4 198/1/4 214/1/4
f 198/4/4 199/4/4 214/4/4
f 201/1/4 202/1/4 215/1/4
f 214/4/4 200/4/4 215/4/4
f 200/1/4 201/1/4 215/1/4
f 215/1/4 202/1/4 216/1/4
f 212/2/4 213/2/4 217/2/4
f 211/2/4 212/2/4 217/2/4
f 215/2/4 216/2/4 217/2/4
f 214/2/4 215/2/4 217/2/4
f 213/2/4 214/2/4 217/2/4
f 210/2/4 211/2/4 217/2/4
f 209/2/4 210/2/4 217/2/4
f 208/2/4 209/2/4 217/2/4
f 207/2/4 208/2/4 217/2/4
f 206/2/4 207/2/4 217/2/4
f 205/2/4 206/2/4 217/2/4
f 204/2/4 205/2/4 217/2/4
f 203/2/4 204/2/4 217/2/4
f 217/2/4 216/2/4 218/2/4
f 218/2/4 216/2/4 219/2/4
f 219/2/4 216/2/4 220/2/4
f 220/2/4 216/2/4 221/2/4
f 221/2/4 216/2/4 222/2/4
f 222/2/4 216/2/4 223/2/4
f 223/2/4 216/2/4 224/2/4
f 224/2/4 216/2/4 225/2/4
f 225/2/4 216/2/4 226/2/4
f 226/2/4 216/2/4 227/2/4
f 227/2/4 216/2/4 228/2/4
f 228/2/4 216/2/4 229/2/4
f 229/2/4 216/2/4 230/2/4
f 230/2/4 216/2/4 231/2/4
f 231/2/4 216/2/4 232/2/4
f 232/2/4 216/2/4 233/2/4
f 233/2/4 216/2/4 234/2/4
f 234/2/4 216/2/4 235/2/4
f 235/2/4 216/2/4 236/2/4
f 236/2/4 216/2/4 237/2/4
f 237/2/4 216/2/4 238/2/4
f 217/3/4 218/3/4 239/3/4
f 218/2/4 219/2/4 240/2/4
f 239/3/4 218/3/4 240/3/4
f 219/3/4 220/3/4 241/3/4
f 240/2/4 219/2/4 241/2/4
f 220/2/4 221/2/4 242/2/4
f 241/3/4 220/3/4 242/3/4
f 221/3/4 222/3/4 243/3/4
f 242/2/4 221/2/4 243/2/4
f 222/2/4 223/2/4 244/2/4
f 243/3/4 222/3/4 244/3/4
f 223/3/4 224/3/4 245/3/4
f 244/2/4 223/2/4 245/2/4
f 224/2/4 225/2/4 246/2/4
f 245/3/4 224/3/4 246/3/4
f 225/3/4 226/3/4 247/3/4
f 246/2/4 225/2/4 247/2/4
f 226/2/4 227/2/4 248/2/4
f 247/3/4 226/3/4 248/3/4
f 227/3/4 228/3/4 249/3/4
f 248/2/4 227/2/4 249/2/4
f 228/2/4 229/2/4 250/2/4
f 249/3/4 228/3/4 250/3/4
f 229/3/4 230/3/4 251/3/4
f 250/2/4 229/2/4 251/2/4
f 230/2/4 231/2/4 252/2/4
f 251/3/4 230/3/4 252/3/4
f 231/3/4 232/3/4 253/3/4
f 252/2/4 231/2/4 253/2/4
f 232/2/4 233/2/4 254/2/4
f 253/3/4 232/3/4 254/3/4
f 233/3/4 234/3/4 255/3/4
f 254/2/4 233/2/4 255/2/4
f 234/2/4 235/2/4 256/2/4
f 255/3/4 234/3/4 256/3/4
f 235/3/4 236/3/4 257/3/4
f 256/2/4 235/2/4 257/2/4
f 236/2/4 237/2/4 258/2/4
f 257/3/4 236/3/4 258/3/4
f 237/3/4 238/3/4 259/3/4
f 258/2/4 237/2/4 259/2/4
f 259/3/4 238/3/4 260/3/4
f 203/2/4 217/2/4 261/2/4
f 217/3/4 239/3/4 262/3/4
f 261/2/4 217/2/4 262/2/4
f 239/2/4 240/2/4 263/2/4
f 262/3/4 239/3/4 263/3/4
f 240/2/4 241/2/4 263/2/4
f 259/2/4 260/2/4 263/2/4
f 258/2/4 259/2/4 263/2/4
f 257/2/4 258/2/4 263/2/4
f 256/2/4 257/2/4 263/2/4
f 255/2/4 256/2/4 263/2/4
f 254/2/4 255/2/4 263/2/4
f 253/2/4 254/2/4 263/2/4
f 252/2/4 253/2/4 263/2/4
f 251/2/4 252/2/4 263/2/4
f 250/2/4 251/2/4 263/2/4
f 249/2/4 250/2/4 263/2/4
f 248/2/4 249/2/4 263/2/4
f 247/2/4 248/2/4 263/2/4
f 246/2/4 247/2/4 263/2/4
f 245/2/4 246/2/4 263/2/4
f 244/2/4 245/2/4 263/2/4
f 243/2/4 244/2/4 263/2/4
f 242/2/4 243/2/4 263/2/4
f 241/2/4 242/2/4 263/2/4
f 260/3/4 238/3/4 264/3/4
f 263/2/4 260/2/4 264/2/4
f 238/2/4 216/2/4 265/2/4
f 264/3/4 238/3/4 265/3/4
f 265/2/4 216/2/4 266/2/4
f 262/2/4 263/2/4 267/2/4
f 263/3/4 264/3/4 268/3/4
f 267/2/4 263/2/4 268/2/4
f 264/2/4 265/2/4 269/2/4
f 268/3/4 264/3/4 269/3/4
f 269/2/4 265/2/4 270/2/4
f 268/2/4 269/2/4 271/2/4
f 271/2/4 269/2/4 272/2/4
f 276/1/5 274/1/5 273/1/5
f 277/2/5 275/2/5 274/2/5
f 277/1/5 274/1/5 276/1/5
f 278/2/5 275/2/5 277/2/5
f 281/2/5 280/2/5 279/2/5
f 282/2/5 280/2/5 281/2/5
f 285/2/5 284/2/5 283/2/5
f 286/2/5 284/2/5 285/2/5
f 287/2/6 288/2/6 289/2/6
f 289/2/6 288/2/6 290/2/6
f 291/2/6 292/2/6 293/2/6
f 293/2/6 292/2/6 294/2/6
f 295/4/6 296/4/6 299/4/6
f 296/1/6 297/1/6 300/1/6
f 299/4/6 296/4/6 300/4/6
f 297/2/6 298/2/6 301/2/6
f 300/1/6 297/1/6 301/1/6
f 301/2/6 298/2/6 302/2/6
