# MagicaVoxel @ Ephtracy

# material
mtllib frame-sloped.mtl
usemtl palette

# normals
vn -1 0 0
vn 1 0 0
vn 0 0 1
vn 0 0 -1
vn 0 -1 0
vn 0 1 0

# texcoords
vt 0.970703 0.5

# verts
v -8 0 7
v -8 0 -7
v -8 1 8
v -8 1 7
v -8 1 6
v -8 1 -6
v -8 1 -7
v -8 1 -8
v -8 2 7
v -8 2 6
v -8 2 -6
v -8 2 -7
v -8 14 7
v -8 14 6
v -8 14 -6
v -8 14 -7
v -8 15 8
v -8 15 7
v -8 15 6
v -8 15 -6
v -8 15 -7
v -8 15 -8
v -8 16 7
v -8 16 -7
v -7 0 8
v -7 0 7
v -7 0 -7
v -7 0 -8
v -7 1 8
v -7 1 7
v -7 1 -7
v -7 1 -8
v -7 15 8
v -7 15 7
v -7 15 -7
v -7 15 -8
v -7 16 8
v -7 16 7
v -7 16 -7
v -7 16 -8
v -5 13 8
v -5 13 7
v -5 13 -7
v -5 13 -8
v -5 14 8
v -5 14 7
v -5 14 -7
v -5 14 -8
v -4 12 8
v -4 12 7
v -4 12 -7
v -4 12 -8
v -4 13 8
v -4 13 7
v -4 13 -7
v -4 13 -8
v -3 11 8
v -3 11 7
v -3 11 -7
v -3 11 -8
v -3 12 8
v -3 12 7
v -3 12 -7
v -3 12 -8
v -2 10 8
v -2 10 7
v -2 10 -7
v -2 10 -8
v -2 11 8
v -2 11 7
v -2 11 -7
v -2 11 -8
v -1 9 8
v -1 9 7
v -1 9 -7
v -1 9 -8
v -1 10 8
v -1 10 7
v -1 10 -7
v -1 10 -8
v 0 8 8
v 0 8 7
v 0 8 -7
v 0 8 -8
v 0 9 8
v 0 9 7
v 0 9 -7
v 0 9 -8
v 1 7 8
v 1 7 7
v 1 7 -7
v 1 7 -8
v 1 8 8
v 1 8 7
v 1 8 -7
v 1 8 -8
v 2 6 8
v 2 6 7
v 2 6 -7
v 2 6 -8
v 2 7 8
v 2 7 7
v 2 7 -7
v 2 7 -8
v 3 5 8
v 3 5 7
v 3 5 -7
v 3 5 -8
v 3 6 8
v 3 6 7
v 3 6 -7
v 3 6 -8
v 4 4 8
v 4 4 7
v 4 4 -7
v 4 4 -8
v 4 5 8
v 4 5 7
v 4 5 -7
v 4 5 -8
v 5 3 8
v 5 3 7
v 5 3 -7
v 5 3 -8
v 5 4 8
v 5 4 7
v 5 4 -7
v 5 4 -8
v 6 0 7
v 6 0 6
v 6 0 -6
v 6 0 -7
v 6 1 8
v 6 1 7
v 6 1 6
v 6 1 -6
v 6 1 -7
v 6 1 -8
v 6 3 8
v 6 3 7
v 6 3 -7
v 6 3 -8
v 7 0 6
v 7 0 -6
v 7 1 7
v 7 1 6
v 7 1 -6
v 7 1 -7
v 7 2 7
v 7 2 6
v 7 2 -6
v 7 2 -7
v -7 0 6
v -7 0 -6
v -7 1 7
v -7 1 6
v -7 1 -6
v -7 1 -7
v -7 2 8
v -7 2 7
v -7 2 6
v -7 2 -6
v -7 2 -7
v -7 2 -8
v -7 14 8
v -7 14 7
v -7 14 6
v -7 14 -6
v -7 14 -7
v -7 14 -8
v -7 15 7
v -7 15 6
v -7 15 -6
v -7 15 -7
v -7 16 6
v -7 16 -6
v -6 0 7
v -6 0 6
v -6 0 -6
v -6 0 -7
v -6 1 8
v -6 1 7
v -6 1 6
v -6 1 -6
v -6 1 -7
v -6 1 -8
v -6 2 8
v -6 2 7
v -6 2 -7
v -6 2 -8
v -6 15 8
v -6 15 7
v -6 15 6
v -6 15 -6
v -6 15 -7
v -6 15 -8
v -6 16 8
v -6 16 6
v -6 16 -6
v -6 16 -8
v -5 14 8
v -5 14 7
v -5 14 -7
v -5 14 -8
v -5 15 8
v -5 15 7
v -5 15 -7
v -5 15 -8
v -4 13 8
v -4 13 7
v -4 13 -7
v -4 13 -8
v -4 14 8
v -4 14 7
v -4 14 -7
v -4 14 -8
v -3 12 8
v -3 12 7
v -3 12 -7
v -3 12 -8
v -3 13 8
v -3 13 7
v -3 13 -7
v -3 13 -8
v -2 11 8
v -2 11 7
v -2 11 -7
v -2 11 -8
v -2 12 8
v -2 12 7
v -2 12 -7
v -2 12 -8
v -1 10 8
v -1 10 7
v -1 10 -7
v -1 10 -8
v -1 11 8
v -1 11 7
v -1 11 -7
v -1 11 -8
v 0 9 8
v 0 9 7
v 0 9 -7
v 0 9 -8
v 0 10 8
v 0 10 7
v 0 10 -7
v 0 10 -8
v 1 8 8
v 1 8 7
v 1 8 -7
v 1 8 -8
v 1 9 8
v 1 9 7
v 1 9 -7
v 1 9 -8
v 2 7 8
v 2 7 7
v 2 7 -7
v 2 7 -8
v 2 8 8
v 2 8 7
v 2 8 -7
v 2 8 -8
v 3 6 8
v 3 6 7
v 3 6 -7
v 3 6 -8
v 3 7 8
v 3 7 7
v 3 7 -7
v 3 7 -8
v 4 5 8
v 4 5 7
v 4 5 -7
v 4 5 -8
v 4 6 8
v 4 6 7
v 4 6 -7
v 4 6 -8
v 5 4 8
v 5 4 7
v 5 4 -7
v 5 4 -8
v 5 5 8
v 5 5 7
v 5 5 -7
v 5 5 -8
v 6 3 8
v 6 3 7
v 6 3 -7
v 6 3 -8
v 6 4 8
v 6 4 7
v 6 4 -7
v 6 4 -8
v 7 0 8
v 7 0 7
v 7 0 -7
v 7 0 -8
v 7 1 8
v 7 1 7
v 7 1 -7
v 7 1 -8
v 7 2 8
v 7 2 7
v 7 2 -7
v 7 2 -8
v 7 3 8
v 7 3 7
v 7 3 -7
v 7 3 -8
v 8 0 7
v 8 0 -7
v 8 1 8
v 8 1 7
v 8 1 6
v 8 1 -6
v 8 1 -7
v 8 1 -8
v 8 2 8
v 8 2 6
v 8 2 -6
v 8 2 -8
v -8 1 8
v -8 15 8
v -7 0 8
v -7 1 8
v -7 2 8
v -7 14 8
v -7 15 8
v -7 16 8
v -6 1 8
v -6 2 8
v -6 15 8
v -6 16 8
v -5 13 8
v -5 14 8
v -5 15 8
v -4 12 8
v -4 13 8
v -4 14 8
v -3 11 8
v -3 12 8
v -3 13 8
v -2 10 8
v -2 11 8
v -2 12 8
v -1 9 8
v -1 10 8
v -1 11 8
v 0 8 8
v 0 9 8
v 0 10 8
v 1 7 8
v 1 8 8
v 1 9 8
v 2 6 8
v 2 7 8
v 2 8 8
v 3 5 8
v 3 6 8
v 3 7 8
v 4 4 8
v 4 5 8
v 4 6 8
v 5 3 8
v 5 4 8
v 5 5 8
v 6 1 8
v 6 3 8
v 6 4 8
v 7 0 8
v 7 1 8
v 7 2 8
v 7 3 8
v 8 1 8
v 8 2 8
v -8 0 7
v -8 1 7
v -8 15 7
v -8 16 7
v -7 0 7
v -7 1 7
v -7 15 7
v -7 16 7
v 7 0 7
v 7 1 7
v 8 0 7
v 8 1 7
v -8 1 -6
v -8 2 -6
v -8 14 -6
v -8 15 -6
v -7 0 -6
v -7 1 -6
v -7 2 -6
v -7 14 -6
v -7 15 -6
v -7 16 -6
v -6 0 -6
v -6 1 -6
v -6 15 -6
v -6 16 -6
v 6 0 -6
v 6 1 -6
v 7 0 -6
v 7 1 -6
v 7 2 -6
v 8 1 -6
v 8 2 -6
v -8 2 -7
v -8 14 -7
v -7 1 -7
v -7 2 -7
v -7 14 -7
v -7 15 -7
v -6 0 -7
v -6 1 -7
v -6 2 -7
v -6 15 -7
v -5 13 -7
v -5 14 -7
v -5 15 -7
v -4 12 -7
v -4 13 -7
v -4 14 -7
v -3 11 -7
v -3 12 -7
v -3 13 -7
v -2 10 -7
v -2 11 -7
v -2 12 -7
v -1 9 -7
v -1 10 -7
v -1 11 -7
v 0 8 -7
v 0 9 -7
v 0 10 -7
v 1 7 -7
v 1 8 -7
v 1 9 -7
v 2 6 -7
v 2 7 -7
v 2 8 -7
v 3 5 -7
v 3 6 -7
v 3 7 -7
v 4 4 -7
v 4 5 -7
v 4 6 -7
v 5 3 -7
v 5 4 -7
v 5 5 -7
v 6 0 -7
v 6 1 -7
v 6 3 -7
v 6 4 -7
v 7 1 -7
v 7 2 -7
v 7 3 -7
v -8 2 7
v -8 14 7
v -7 1 7
v -7 2 7
v -7 14 7
v -7 15 7
v -6 0 7
v -6 1 7
v -6 2 7
v -6 15 7
v -5 13 7
v -5 14 7
v -5 15 7
v -4 12 7
v -4 13 7
v -4 14 7
v -3 11 7
v -3 12 7
v -3 13 7
v -2 10 7
v -2 11 7
v -2 12 7
v -1 9 7
v -1 10 7
v -1 11 7
v 0 8 7
v 0 9 7
v 0 10 7
v 1 7 7
v 1 8 7
v 1 9 7
v 2 6 7
v 2 7 7
v 2 8 7
v 3 5 7
v 3 6 7
v 3 7 7
v 4 4 7
v 4 5 7
v 4 6 7
v 5 3 7
v 5 4 7
v 5 5 7
v 6 0 7
v 6 1 7
v 6 3 7
v 6 4 7
v 7 1 7
v 7 2 7
v 7 3 7
v -8 1 6
v -8 2 6
v -8 14 6
v -8 15 6
v -7 0 6
v -7 1 6
v -7 2 6
v -7 14 6
v -7 15 6
v -7 16 6
v -6 0 6
v -6 1 6
v -6 15 6
v -6 16 6
v 6 0 6
v 6 1 6
v 7 0 6
v 7 1 6
v 7 2 6
v 8 1 6
v 8 2 6
v -8 0 -7
v -8 1 -7
v -8 15 -7
v -8 16 -7
v -7 0 -7
v -7 1 -7
v -7 15 -7
v -7 16 -7
v 7 0 -7
v 7 1 -7
v 8 0 -7
v 8 1 -7
v -8 1 -8
v -8 15 -8
v -7 0 -8
v -7 1 -8
v -7 2 -8
v -7 14 -8
v -7 15 -8
v -7 16 -8
v -6 1 -8
v -6 2 -8
v -6 15 -8
v -6 16 -8
v -5 13 -8
v -5 14 -8
v -5 15 -8
v -4 12 -8
v -4 13 -8
v -4 14 -8
v -3 11 -8
v -3 12 -8
v -3 13 -8
v -2 10 -8
v -2 11 -8
v -2 12 -8
v -1 9 -8
v -1 10 -8
v -1 11 -8
v 0 8 -8
v 0 9 -8
v 0 10 -8
v 1 7 -8
v 1 8 -8
v 1 9 -8
v 2 6 -8
v 2 7 -8
v 2 8 -8
v 3 5 -8
v 3 6 -8
v 3 7 -8
v 4 4 -8
v 4 5 -8
v 4 6 -8
v 5 3 -8
v 5 4 -8
v 5 5 -8
v 6 1 -8
v 6 3 -8
v 6 4 -8
v 7 0 -8
v 7 1 -8
v 7 2 -8
v 7 3 -8
v 8 1 -8
v 8 2 -8
v -7 0 8
v 7 0 8
v -8 0 7
v -7 0 7
v -6 0 7
v 6 0 7
v 7 0 7
v 8 0 7
v -7 0 6
v -6 0 6
v 6 0 6
v 7 0 6
v -7 0 -6
v -6 0 -6
v 6 0 -6
v 7 0 -6
v -8 0 -7
v -7 0 -7
v -6 0 -7
v 6 0 -7
v 7 0 -7
v 8 0 -7
v -7 0 -8
v 7 0 -8
v -8 1 8
v -7 1 8
v 7 1 8
v 8 1 8
v -8 1 7
v -7 1 7
v 7 1 7
v 8 1 7
v -8 1 -7
v -7 1 -7
v 7 1 -7
v 8 1 -7
v -8 1 -8
v -7 1 -8
v 7 1 -8
v 8 1 -8
v 5 3 8
v 6 3 8
v 5 3 7
v 6 3 7
v 5 3 -7
v 6 3 -7
v 5 3 -8
v 6 3 -8
v 4 4 8
v 5 4 8
v 4 4 7
v 5 4 7
v 4 4 -7
v 5 4 -7
v 4 4 -8
v 5 4 -8
v 3 5 8
v 4 5 8
v 3 5 7
v 4 5 7
v 3 5 -7
v 4 5 -7
v 3 5 -8
v 4 5 -8
v 2 6 8
v 3 6 8
v 2 6 7
v 3 6 7
v 2 6 -7
v 3 6 -7
v 2 6 -8
v 3 6 -8
v 1 7 8
v 2 7 8
v 1 7 7
v 2 7 7
v 1 7 -7
v 2 7 -7
v 1 7 -8
v 2 7 -8
v 0 8 8
v 1 8 8
v 0 8 7
v 1 8 7
v 0 8 -7
v 1 8 -7
v 0 8 -8
v 1 8 -8
v -1 9 8
v 0 9 8
v -1 9 7
v 0 9 7
v -1 9 -7
v 0 9 -7
v -1 9 -8
v 0 9 -8
v -2 10 8
v -1 10 8
v -2 10 7
v -1 10 7
v -2 10 -7
v -1 10 -7
v -2 10 -8
v -1 10 -8
v -3 11 8
v -2 11 8
v -3 11 7
v -2 11 7
v -3 11 -7
v -2 11 -7
v -3 11 -8
v -2 11 -8
v -4 12 8
v -3 12 8
v -4 12 7
v -3 12 7
v -4 12 -7
v -3 12 -7
v -4 12 -8
v -3 12 -8
v -5 13 8
v -4 13 8
v -5 13 7
v -4 13 7
v -5 13 -7
v -4 13 -7
v -5 13 -8
v -4 13 -8
v -7 14 8
v -5 14 8
v -8 14 7
v -7 14 7
v -5 14 7
v -8 14 6
v -7 14 6
v -8 14 -6
v -7 14 -6
v -8 14 -7
v -7 14 -7
v -5 14 -7
v -7 14 -8
v -5 14 -8
v -7 15 7
v -6 15 7
v -8 15 6
v -7 15 6
v -6 15 6
v -8 15 -6
v -7 15 -6
v -6 15 -6
v -7 15 -7
v -6 15 -7
v -6 1 8
v 6 1 8
v -7 1 7
v -6 1 7
v 6 1 7
v 7 1 7
v -8 1 6
v -7 1 6
v -6 1 6
v 6 1 6
v 7 1 6
v 8 1 6
v -8 1 -6
v -7 1 -6
v -6 1 -6
v 6 1 -6
v 7 1 -6
v 8 1 -6
v -7 1 -7
v -6 1 -7
v 6 1 -7
v 7 1 -7
v -6 1 -8
v 6 1 -8
v -7 2 8
v -6 2 8
v 7 2 8
v 8 2 8
v -8 2 7
v -7 2 7
v -6 2 7
v 7 2 7
v -8 2 6
v -7 2 6
v 7 2 6
v 8 2 6
v -8 2 -6
v -7 2 -6
v 7 2 -6
v 8 2 -6
v -8 2 -7
v -7 2 -7
v -6 2 -7
v 7 2 -7
v -7 2 -8
v -6 2 -8
v 7 2 -8
v 8 2 -8
v 6 3 8
v 7 3 8
v 6 3 7
v 7 3 7
v 6 3 -7
v 7 3 -7
v 6 3 -8
v 7 3 -8
v 5 4 8
v 6 4 8
v 5 4 7
v 6 4 7
v 5 4 -7
v 6 4 -7
v 5 4 -8
v 6 4 -8
v 4 5 8
v 5 5 8
v 4 5 7
v 5 5 7
v 4 5 -7
v 5 5 -7
v 4 5 -8
v 5 5 -8
v 3 6 8
v 4 6 8
v 3 6 7
v 4 6 7
v 3 6 -7
v 4 6 -7
v 3 6 -8
v 4 6 -8
v 2 7 8
v 3 7 8
v 2 7 7
v 3 7 7
v 2 7 -7
v 3 7 -7
v 2 7 -8
v 3 7 -8
v 1 8 8
v 2 8 8
v 1 8 7
v 2 8 7
v 1 8 -7
v 2 8 -7
v 1 8 -8
v 2 8 -8
v 0 9 8
v 1 9 8
v 0 9 7
v 1 9 7
v 0 9 -7
v 1 9 -7
v 0 9 -8
v 1 9 -8
v -1 10 8
v 0 10 8
v -1 10 7
v 0 10 7
v -1 10 -7
v 0 10 -7
v -1 10 -8
v 0 10 -8
v -2 11 8
v -1 11 8
v -2 11 7
v -1 11 7
v -2 11 -7
v -1 11 -7
v -2 11 -8
v -1 11 -8
v -3 12 8
v -2 12 8
v -3 12 7
v -2 12 7
v -3 12 -7
v -2 12 -7
v -3 12 -8
v -2 12 -8
v -4 13 8
v -3 13 8
v -4 13 7
v -3 13 7
v -4 13 -7
v -3 13 -7
v -4 13 -8
v -3 13 -8
v -5 14 8
v -4 14 8
v -5 14 7
v -4 14 7
v -5 14 -7
v -4 14 -7
v -5 14 -8
v -4 14 -8
v -8 15 8
v -7 15 8
v -6 15 8
v -5 15 8
v -8 15 7
v -7 15 7
v -6 15 7
v -5 15 7
v -8 15 -7
v -7 15 -7
v -6 15 -7
v -5 15 -7
v -8 15 -8
v -7 15 -8
v -6 15 -8
v -5 15 -8
v -7 16 8
v -6 16 8
v -8 16 7
v -7 16 7
v -7 16 6
v -6 16 6
v -7 16 -6
v -6 16 -6
v -8 16 -7
v -7 16 -7
v -7 16 -8
v -6 16 -8

# faces
f 4/1/1 2/1/1 1/1/1
f 5/1/1 2/1/1 4/1/1
f 6/1/1 2/1/1 5/1/1
f 7/1/1 2/1/1 6/1/1
f 9/1/1 4/1/1 3/1/1
f 9/1/1 5/1/1 4/1/1
f 10/1/1 5/1/1 9/1/1
f 11/1/1 8/1/1 7/1/1
f 11/1/1 7/1/1 6/1/1
f 12/1/1 8/1/1 11/1/1
f 13/1/1 9/1/1 3/1/1
f 16/1/1 8/1/1 12/1/1
f 17/1/1 14/1/1 13/1/1
f 17/1/1 13/1/1 3/1/1
f 18/1/1 14/1/1 17/1/1
f 19/1/1 14/1/1 18/1/1
f 20/1/1 16/1/1 15/1/1
f 21/1/1 8/1/1 16/1/1
f 21/1/1 16/1/1 20/1/1
f 22/1/1 8/1/1 21/1/1
f 23/1/1 19/1/1 18/1/1
f 23/1/1 20/1/1 19/1/1
f 23/1/1 21/1/1 20/1/1
f 24/1/1 21/1/1 23/1/1
f 29/1/1 26/1/1 25/1/1
f 30/1/1 26/1/1 29/1/1
f 31/1/1 28/1/1 27/1/1
f 32/1/1 28/1/1 31/1/1
f 37/1/1 34/1/1 33/1/1
f 38/1/1 34/1/1 37/1/1
f 39/1/1 36/1/1 35/1/1
f 40/1/1 36/1/1 39/1/1
f 45/1/1 42/1/1 41/1/1
f 46/1/1 42/1/1 45/1/1
f 47/1/1 44/1/1 43/1/1
f 48/1/1 44/1/1 47/1/1
f 53/1/1 50/1/1 49/1/1
f 54/1/1 50/1/1 53/1/1
f 55/1/1 52/1/1 51/1/1
f 56/1/1 52/1/1 55/1/1
f 61/1/1 58/1/1 57/1/1
f 62/1/1 58/1/1 61/1/1
f 63/1/1 60/1/1 59/1/1
f 64/1/1 60/1/1 63/1/1
f 69/1/1 66/1/1 65/1/1
f 70/1/1 66/1/1 69/1/1
f 71/1/1 68/1/1 67/1/1
f 72/1/1 68/1/1 71/1/1
f 77/1/1 74/1/1 73/1/1
f 78/1/1 74/1/1 77/1/1
f 79/1/1 76/1/1 75/1/1
f 80/1/1 76/1/1 79/1/1
f 85/1/1 82/1/1 81/1/1
f 86/1/1 82/1/1 85/1/1
f 87/1/1 84/1/1 83/1/1
f 88/1/1 84/1/1 87/1/1
f 93/1/1 90/1/1 89/1/1
f 94/1/1 90/1/1 93/1/1
f 95/1/1 92/1/1 91/1/1
f 96/1/1 92/1/1 95/1/1
f 101/1/1 98/1/1 97/1/1
f 102/1/1 98/1/1 101/1/1
f 103/1/1 100/1/1 99/1/1
f 104/1/1 100/1/1 103/1/1
f 109/1/1 106/1/1 105/1/1
f 110/1/1 106/1/1 109/1/1
f 111/1/1 108/1/1 107/1/1
f 112/1/1 108/1/1 111/1/1
f 117/1/1 114/1/1 113/1/1
f 118/1/1 114/1/1 117/1/1
f 119/1/1 116/1/1 115/1/1
f 120/1/1 116/1/1 119/1/1
f 125/1/1 122/1/1 121/1/1
f 126/1/1 122/1/1 125/1/1
f 127/1/1 124/1/1 123/1/1
f 128/1/1 124/1/1 127/1/1
f 134/1/1 130/1/1 129/1/1
f 135/1/1 130/1/1 134/1/1
f 136/1/1 132/1/1 131/1/1
f 137/1/1 132/1/1 136/1/1
f 139/1/1 134/1/1 133/1/1
f 140/1/1 134/1/1 139/1/1
f 141/1/1 138/1/1 137/1/1
f 142/1/1 138/1/1 141/1/1
f 146/1/1 144/1/1 143/1/1
f 147/1/1 144/1/1 146/1/1
f 149/1/1 146/1/1 145/1/1
f 150/1/1 146/1/1 149/1/1
f 151/1/1 148/1/1 147/1/1
f 152/1/1 148/1/1 151/1/1
f 153/1/2 154/1/2 156/1/2
f 156/1/2 154/1/2 157/1/2
f 155/1/2 156/1/2 160/1/2
f 160/1/2 156/1/2 161/1/2
f 157/1/2 158/1/2 162/1/2
f 162/1/2 158/1/2 163/1/2
f 159/1/2 160/1/2 165/1/2
f 165/1/2 160/1/2 166/1/2
f 163/1/2 164/1/2 169/1/2
f 169/1/2 164/1/2 170/1/2
f 166/1/2 167/1/2 171/1/2
f 171/1/2 167/1/2 172/1/2
f 168/1/2 169/1/2 173/1/2
f 173/1/2 169/1/2 174/1/2
f 172/1/2 173/1/2 175/1/2
f 175/1/2 173/1/2 176/1/2
f 177/1/2 178/1/2 182/1/2
f 182/1/2 178/1/2 183/1/2
f 179/1/2 180/1/2 184/1/2
f 184/1/2 180/1/2 185/1/2
f 181/1/2 182/1/2 187/1/2
f 187/1/2 182/1/2 188/1/2
f 185/1/2 186/1/2 189/1/2
f 189/1/2 186/1/2 190/1/2
f 191/1/2 192/1/2 197/1/2
f 192/1/2 193/1/2 197/1/2
f 197/1/2 193/1/2 198/1/2
f 195/1/2 196/1/2 199/1/2
f 194/1/2 195/1/2 199/1/2
f 199/1/2 196/1/2 200/1/2
f 201/1/2 202/1/2 205/1/2
f 205/1/2 202/1/2 206/1/2
f 203/1/2 204/1/2 207/1/2
f 207/1/2 204/1/2 208/1/2
f 209/1/2 210/1/2 213/1/2
f 213/1/2 210/1/2 214/1/2
f 211/1/2 212/1/2 215/1/2
f 215/1/2 212/1/2 216/1/2
f 217/1/2 218/1/2 221/1/2
f 221/1/2 218/1/2 222/1/2
f 219/1/2 220/1/2 223/1/2
f 223/1/2 220/1/2 224/1/2
f 225/1/2 226/1/2 229/1/2
f 229/1/2 226/1/2 230/1/2
f 227/1/2 228/1/2 231/1/2
f 231/1/2 228/1/2 232/1/2
f 233/1/2 234/1/2 237/1/2
f 237/1/2 234/1/2 238/1/2
f 235/1/2 236/1/2 239/1/2
f 239/1/2 236/1/2 240/1/2
f 241/1/2 242/1/2 245/1/2
f 245/1/2 242/1/2 246/1/2
f 243/1/2 244/1/2 247/1/2
f 247/1/2 244/1/2 248/1/2
f 249/1/2 250/1/2 253/1/2
f 253/1/2 250/1/2 254/1/2
f 251/1/2 252/1/2 255/1/2
f 255/1/2 252/1/2 256/1/2
f 257/1/2 258/1/2 261/1/2
f 261/1/2 258/1/2 262/1/2
f 259/1/2 260/1/2 263/1/2
f 263/1/2 260/1/2 264/1/2
f 265/1/2 266/1/2 269/1/2
f 269/1/2 266/1/2 270/1/2
f 267/1/2 268/1/2 271/1/2
f 271/1/2 268/1/2 272/1/2
f 273/1/2 274/1/2 277/1/2
f 277/1/2 274/1/2 278/1/2
f 275/1/2 276/1/2 279/1/2
f 279/1/2 276/1/2 280/1/2
f 281/1/2 282/1/2 285/1/2
f 285/1/2 282/1/2 286/1/2
f 283/1/2 284/1/2 287/1/2
f 287/1/2 284/1/2 288/1/2
f 289/1/2 290/1/2 293/1/2
f 293/1/2 290/1/2 294/1/2
f 291/1/2 292/1/2 295/1/2
f 295/1/2 292/1/2 296/1/2
f 297/1/2 298/1/2 301/1/2
f 301/1/2 298/1/2 302/1/2
f 299/1/2 300/1/2 303/1/2
f 303/1/2 300/1/2 304/1/2
f 305/1/2 306/1/2 309/1/2
f 309/1/2 306/1/2 310/1/2
f 307/1/2 308/1/2 311/1/2
f 311/1/2 308/1/2 312/1/2
f 313/1/2 314/1/2 316/1/2
f 316/1/2 314/1/2 317/1/2
f 317/1/2 314/1/2 318/1/2
f 318/1/2 314/1/2 319/1/2
f 315/1/2 316/1/2 321/1/2
f 316/1/2 317/1/2 321/1/2
f 321/1/2 317/1/2 322/1/2
f 319/1/2 320/1/2 323/1/2
f 318/1/2 319/1/2 323/1/2
f 323/1/2 320/1/2 324/1/2
f 328/1/3 326/1/3 325/1/3
f 329/1/3 326/1/3 328/1/3
f 330/1/3 326/1/3 329/1/3
f 331/1/3 326/1/3 330/1/3
f 333/1/3 328/1/3 327/1/3
f 333/1/3 329/1/3 328/1/3
f 334/1/3 329/1/3 333/1/3
f 335/1/3 332/1/3 331/1/3
f 335/1/3 331/1/3 330/1/3
f 336/1/3 332/1/3 335/1/3
f 338/1/3 335/1/3 330/1/3
f 339/1/3 335/1/3 338/1/3
f 341/1/3 338/1/3 337/1/3
f 342/1/3 338/1/3 341/1/3
f 344/1/3 341/1/3 340/1/3
f 345/1/3 341/1/3 344/1/3
f 347/1/3 344/1/3 343/1/3
f 348/1/3 344/1/3 347/1/3
f 350/1/3 347/1/3 346/1/3
f 351/1/3 347/1/3 350/1/3
f 353/1/3 350/1/3 349/1/3
f 354/1/3 350/1/3 353/1/3
f 356/1/3 353/1/3 352/1/3
f 357/1/3 353/1/3 356/1/3
f 359/1/3 356/1/3 355/1/3
f 360/1/3 356/1/3 359/1/3
f 362/1/3 359/1/3 358/1/3
f 363/1/3 359/1/3 362/1/3
f 365/1/3 362/1/3 361/1/3
f 366/1/3 362/1/3 365/1/3
f 368/1/3 365/1/3 364/1/3
f 369/1/3 365/1/3 368/1/3
f 370/1/3 333/1/3 327/1/3
f 371/1/3 368/1/3 367/1/3
f 372/1/3 368/1/3 371/1/3
f 373/1/3 370/1/3 327/1/3
f 373/1/3 371/1/3 370/1/3
f 374/1/3 371/1/3 373/1/3
f 375/1/3 371/1/3 374/1/3
f 376/1/3 371/1/3 375/1/3
f 377/1/3 375/1/3 374/1/3
f 378/1/3 375/1/3 377/1/3
f 383/1/3 380/1/3 379/1/3
f 384/1/3 380/1/3 383/1/3
f 385/1/3 382/1/3 381/1/3
f 386/1/3 382/1/3 385/1/3
f 389/1/3 388/1/3 387/1/3
f 390/1/3 388/1/3 389/1/3
f 396/1/3 392/1/3 391/1/3
f 397/1/3 392/1/3 396/1/3
f 398/1/3 394/1/3 393/1/3
f 399/1/3 394/1/3 398/1/3
f 401/1/3 396/1/3 395/1/3
f 402/1/3 396/1/3 401/1/3
f 403/1/3 400/1/3 399/1/3
f 404/1/3 400/1/3 403/1/3
f 407/1/3 406/1/3 405/1/3
f 408/1/3 406/1/3 407/1/3
f 410/1/3 409/1/3 408/1/3
f 411/1/3 409/1/3 410/1/3
f 415/1/3 413/1/3 412/1/3
f 416/1/3 413/1/3 415/1/3
f 419/1/3 415/1/3 414/1/3
f 420/1/3 415/1/3 419/1/3
f 421/1/3 417/1/3 416/1/3
f 423/1/3 421/1/3 416/1/3
f 424/1/3 421/1/3 423/1/3
f 426/1/3 423/1/3 422/1/3
f 427/1/3 423/1/3 426/1/3
f 429/1/3 426/1/3 425/1/3
f 430/1/3 426/1/3 429/1/3
f 432/1/3 429/1/3 428/1/3
f 433/1/3 429/1/3 432/1/3
f 435/1/3 432/1/3 431/1/3
f 436/1/3 432/1/3 435/1/3
f 438/1/3 435/1/3 434/1/3
f 439/1/3 435/1/3 438/1/3
f 441/1/3 438/1/3 437/1/3
f 442/1/3 438/1/3 441/1/3
f 444/1/3 441/1/3 440/1/3
f 445/1/3 441/1/3 444/1/3
f 447/1/3 444/1/3 443/1/3
f 448/1/3 444/1/3 447/1/3
f 450/1/3 447/1/3 446/1/3
f 451/1/3 447/1/3 450/1/3
f 453/1/3 450/1/3 449/1/3
f 454/1/3 450/1/3 453/1/3
f 455/1/3 419/1/3 418/1/3
f 456/1/3 419/1/3 455/1/3
f 457/1/3 453/1/3 452/1/3
f 458/1/3 453/1/3 457/1/3
f 459/1/3 457/1/3 456/1/3
f 460/1/3 457/1/3 459/1/3
f 461/1/3 457/1/3 460/1/3
f 462/1/4 463/1/4 465/1/4
f 465/1/4 463/1/4 466/1/4
f 464/1/4 465/1/4 469/1/4
f 469/1/4 465/1/4 470/1/4
f 466/1/4 467/1/4 471/1/4
f 466/1/4 471/1/4 473/1/4
f 473/1/4 471/1/4 474/1/4
f 472/1/4 473/1/4 476/1/4
f 476/1/4 473/1/4 477/1/4
f 475/1/4 476/1/4 479/1/4
f 479/1/4 476/1/4 480/1/4
f 478/1/4 479/1/4 482/1/4
f 482/1/4 479/1/4 483/1/4
f 481/1/4 482/1/4 485/1/4
f 485/1/4 482/1/4 486/1/4
f 484/1/4 485/1/4 488/1/4
f 488/1/4 485/1/4 489/1/4
f 487/1/4 488/1/4 491/1/4
f 491/1/4 488/1/4 492/1/4
f 490/1/4 491/1/4 494/1/4
f 494/1/4 491/1/4 495/1/4
f 493/1/4 494/1/4 497/1/4
f 497/1/4 494/1/4 498/1/4
f 496/1/4 497/1/4 500/1/4
f 500/1/4 497/1/4 501/1/4
f 499/1/4 500/1/4 503/1/4
f 503/1/4 500/1/4 504/1/4
f 468/1/4 469/1/4 505/1/4
f 505/1/4 469/1/4 506/1/4
f 502/1/4 503/1/4 507/1/4
f 507/1/4 503/1/4 508/1/4
f 506/1/4 507/1/4 509/1/4
f 509/1/4 507/1/4 510/1/4
f 510/1/4 507/1/4 511/1/4
f 512/1/4 513/1/4 517/1/4
f 517/1/4 513/1/4 518/1/4
f 514/1/4 515/1/4 519/1/4
f 519/1/4 515/1/4 520/1/4
f 516/1/4 517/1/4 522/1/4
f 522/1/4 517/1/4 523/1/4
f 520/1/4 521/1/4 524/1/4
f 524/1/4 521/1/4 525/1/4
f 526/1/4 527/1/4 528/1/4
f 528/1/4 527/1/4 529/1/4
f 529/1/4 530/1/4 531/1/4
f 531/1/4 530/1/4 532/1/4
f 533/1/4 534/1/4 537/1/4
f 537/1/4 534/1/4 538/1/4
f 535/1/4 536/1/4 539/1/4
f 539/1/4 536/1/4 540/1/4
f 541/1/4 542/1/4 543/1/4
f 543/1/4 542/1/4 544/1/4
f 545/1/4 546/1/4 548/1/4
f 548/1/4 546/1/4 549/1/4
f 549/1/4 546/1/4 550/1/4
f 550/1/4 546/1/4 551/1/4
f 547/1/4 548/1/4 553/1/4
f 548/1/4 549/1/4 553/1/4
f 553/1/4 549/1/4 554/1/4
f 551/1/4 552/1/4 555/1/4
f 550/1/4 551/1/4 555/1/4
f 555/1/4 552/1/4 556/1/4
f 550/1/4 555/1/4 558/1/4
f 558/1/4 555/1/4 559/1/4
f 557/1/4 558/1/4 561/1/4
f 561/1/4 558/1/4 562/1/4
f 560/1/4 561/1/4 564/1/4
f 564/1/4 561/1/4 565/1/4
f 563/1/4 564/1/4 567/1/4
f 567/1/4 564/1/4 568/1/4
f 566/1/4 567/1/4 570/1/4
f 570/1/4 567/1/4 571/1/4
f 569/1/4 570/1/4 573/1/4
f 573/1/4 570/1/4 574/1/4
f 572/1/4 573/1/4 576/1/4
f 576/1/4 573/1/4 577/1/4
f 575/1/4 576/1/4 579/1/4
f 579/1/4 576/1/4 580/1/4
f 578/1/4 579/1/4 582/1/4
f 582/1/4 579/1/4 583/1/4
f 581/1/4 582/1/4 585/1/4
f 585/1/4 582/1/4 586/1/4
f 584/1/4 585/1/4 588/1/4
f 588/1/4 585/1/4 589/1/4
f 547/1/4 553/1/4 590/1/4
f 587/1/4 588/1/4 591/1/4
f 591/1/4 588/1/4 592/1/4
f 547/1/4 590/1/4 593/1/4
f 590/1/4 591/1/4 593/1/4
f 593/1/4 591/1/4 594/1/4
f 594/1/4 591/1/4 595/1/4
f 595/1/4 591/1/4 596/1/4
f 594/1/4 595/1/4 597/1/4
f 597/1/4 595/1/4 598/1/4
f 602/1/5 600/1/5 599/1/5
f 603/1/5 600/1/5 602/1/5
f 604/1/5 600/1/5 603/1/5
f 605/1/5 600/1/5 604/1/5
f 607/1/5 602/1/5 601/1/5
f 607/1/5 603/1/5 602/1/5
f 608/1/5 603/1/5 607/1/5
f 609/1/5 606/1/5 605/1/5
f 609/1/5 605/1/5 604/1/5
f 610/1/5 606/1/5 609/1/5
f 611/1/5 607/1/5 601/1/5
f 614/1/5 606/1/5 610/1/5
f 615/1/5 612/1/5 611/1/5
f 615/1/5 611/1/5 601/1/5
f 616/1/5 612/1/5 615/1/5
f 617/1/5 612/1/5 616/1/5
f 618/1/5 614/1/5 613/1/5
f 619/1/5 606/1/5 614/1/5
f 619/1/5 614/1/5 618/1/5
f 620/1/5 606/1/5 619/1/5
f 621/1/5 617/1/5 616/1/5
f 621/1/5 618/1/5 617/1/5
f 621/1/5 619/1/5 618/1/5
f 622/1/5 619/1/5 621/1/5
f 627/1/5 624/1/5 623/1/5
f 628/1/5 624/1/5 627/1/5
f 629/1/5 626/1/5 625/1/5
f 630/1/5 626/1/5 629/1/5
f 635/1/5 632/1/5 631/1/5
f 636/1/5 632/1/5 635/1/5
f 637/1/5 634/1/5 633/1/5
f 638/1/5 634/1/5 637/1/5
f 641/1/5 640/1/5 639/1/5
f 642/1/5 640/1/5 641/1/5
f 645/1/5 644/1/5 643/1/5
f 646/1/5 644/1/5 645/1/5
f 649/1/5 648/1/5 647/1/5
f 650/1/5 648/1/5 649/1/5
f 653/1/5 652/1/5 651/1/5
f 654/1/5 652/1/5 653/1/5
f 657/1/5 656/1/5 655/1/5
f 658/1/5 656/1/5 657/1/5
f 661/1/5 660/1/5 659/1/5
f 662/1/5 660/1/5 661/1/5
f 665/1/5 664/1/5 663/1/5
f 666/1/5 664/1/5 665/1/5
f 669/1/5 668/1/5 667/1/5
f 670/1/5 668/1/5 669/1/5
f 673/1/5 672/1/5 671/1/5
f 674/1/5 672/1/5 673/1/5
f 677/1/5 676/1/5 675/1/5
f 678/1/5 676/1/5 677/1/5
f 681/1/5 680/1/5 679/1/5
f 682/1/5 680/1/5 681/1/5
f 685/1/5 684/1/5 683/1/5
f 686/1/5 684/1/5 685/1/5
f 689/1/5 688/1/5 687/1/5
f 690/1/5 688/1/5 689/1/5
f 693/1/5 692/1/5 691/1/5
f 694/1/5 692/1/5 693/1/5
f 697/1/5 696/1/5 695/1/5
f 698/1/5 696/1/5 697/1/5
f 701/1/5 700/1/5 699/1/5
f 702/1/5 700/1/5 701/1/5
f 705/1/5 704/1/5 703/1/5
f 706/1/5 704/1/5 705/1/5
f 709/1/5 708/1/5 707/1/5
f 710/1/5 708/1/5 709/1/5
f 713/1/5 712/1/5 711/1/5
f 714/1/5 712/1/5 713/1/5
f 717/1/5 716/1/5 715/1/5
f 718/1/5 716/1/5 717/1/5
f 721/1/5 720/1/5 719/1/5
f 722/1/5 720/1/5 721/1/5
f 725/1/5 724/1/5 723/1/5
f 726/1/5 724/1/5 725/1/5
f 730/1/5 728/1/5 727/1/5
f 731/1/5 728/1/5 730/1/5
f 732/1/5 730/1/5 729/1/5
f 733/1/5 730/1/5 732/1/5
f 736/1/5 735/1/5 734/1/5
f 737/1/5 735/1/5 736/1/5
f 739/1/5 738/1/5 737/1/5
f 740/1/5 738/1/5 739/1/5
f 744/1/5 742/1/5 741/1/5
f 745/1/5 742/1/5 744/1/5
f 746/1/5 744/1/5 743/1/5
f 747/1/5 744/1/5 746/1/5
f 749/1/5 748/1/5 747/1/5
f 750/1/5 748/1/5 749/1/5
f 751/1/6 752/1/6 754/1/6
f 754/1/6 752/1/6 755/1/6
f 753/1/6 754/1/6 758/1/6
f 758/1/6 754/1/6 759/1/6
f 755/1/6 756/1/6 760/1/6
f 760/1/6 756/1/6 761/1/6
f 757/1/6 758/1/6 763/1/6
f 763/1/6 758/1/6 764/1/6
f 761/1/6 762/1/6 767/1/6
f 767/1/6 762/1/6 768/1/6
f 764/1/6 765/1/6 769/1/6
f 769/1/6 765/1/6 770/1/6
f 766/1/6 767/1/6 771/1/6
f 771/1/6 767/1/6 772/1/6
f 770/1/6 771/1/6 773/1/6
f 773/1/6 771/1/6 774/1/6
f 775/1/6 776/1/6 780/1/6
f 780/1/6 776/1/6 781/1/6
f 777/1/6 778/1/6 782/1/6
f 779/1/6 780/1/6 783/1/6
f 783/1/6 780/1/6 784/1/6
f 782/1/6 778/1/6 785/1/6
f 785/1/6 778/1/6 786/1/6
f 787/1/6 788/1/6 791/1/6
f 791/1/6 788/1/6 792/1/6
f 789/1/6 790/1/6 794/1/6
f 792/1/6 793/1/6 795/1/6
f 795/1/6 793/1/6 796/1/6
f 794/1/6 790/1/6 797/1/6
f 797/1/6 790/1/6 798/1/6
f 799/1/6 800/1/6 801/1/6
f 801/1/6 800/1/6 802/1/6
f 803/1/6 804/1/6 805/1/6
f 805/1/6 804/1/6 806/1/6
f 807/1/6 808/1/6 809/1/6
f 809/1/6 808/1/6 810/1/6
f 811/1/6 812/1/6 813/1/6
f 813/1/6 812/1/6 814/1/6
f 815/1/6 816/1/6 817/1/6
f 817/1/6 816/1/6 818/1/6
f 819/1/6 820/1/6 821/1/6
f 821/1/6 820/1/6 822/1/6
f 823/1/6 824/1/6 825/1/6
f 825/1/6 824/1/6 826/1/6
f 827/1/6 828/1/6 829/1/6
f 829/1/6 828/1/6 830/1/6
f 831/1/6 832/1/6 833/1/6
f 833/1/6 832/1/6 834/1/6
f 835/1/6 836/1/6 837/1/6
f 837/1/6 836/1/6 838/1/6
f 839/1/6 840/1/6 841/1/6
f 841/1/6 840/1/6 842/1/6
f 843/1/6 844/1/6 845/1/6
f 845/1/6 844/1/6 846/1/6
f 847/1/6 848/1/6 849/1/6
f 849/1/6 848/1/6 850/1/6
f 851/1/6 852/1/6 853/1/6
f 853/1/6 852/1/6 854/1/6
f 855/1/6 856/1/6 857/1/6
f 857/1/6 856/1/6 858/1/6
f 859/1/6 860/1/6 861/1/6
f 861/1/6 860/1/6 862/1/6
f 863/1/6 864/1/6 865/1/6
f 865/1/6 864/1/6 866/1/6
f 867/1/6 868/1/6 869/1/6
f 869/1/6 868/1/6 870/1/6
f 871/1/6 872/1/6 873/1/6
f 873/1/6 872/1/6 874/1/6
f 875/1/6 876/1/6 877/1/6
f 877/1/6 876/1/6 878/1/6
f 879/1/6 880/1/6 881/1/6
f 881/1/6 880/1/6 882/1/6
f 883/1/6 884/1/6 885/1/6
f 885/1/6 884/1/6 886/1/6
f 887/1/6 888/1/6 889/1/6
f 889/1/6 888/1/6 890/1/6
f 891/1/6 892/1/6 893/1/6
f 893/1/6 892/1/6 894/1/6
f 895/1/6 896/1/6 899/1/6
f 899/1/6 896/1/6 900/1/6
f 897/1/6 898/1/6 901/1/6
f 901/1/6 898/1/6 902/1/6
f 903/1/6 904/1/6 907/1/6
f 907/1/6 904/1/6 908/1/6
f 905/1/6 906/1/6 909/1/6
f 909/1/6 906/1/6 910/1/6
f 911/1/6 912/1/6 914/1/6
f 914/1/6 912/1/6 915/1/6
f 913/1/6 914/1/6 915/1/6
f 915/1/6 912/1/6 916/1/6
f 913/1/6 915/1/6 917/1/6
f 913/1/6 917/1/6 919/1/6
f 917/1/6 918/1/6 919/1/6
f 919/1/6 918/1/6 920/1/6
f 920/1/6 918/1/6 921/1/6
f 921/1/6 918/1/6 922/1/6
