# MagicaVoxel @ Ephtracy

# material
mtllib glass_yp.mtl
usemtl palette

# normals
vn -1 0 0
vn 1 0 0
vn 0 0 1
vn 0 0 -1
vn 0 -1 0
vn 0 1 0

# texcoords
vt 0.978516 0.5

# verts
v -7 2 -6
v -7 2 -8
v -7 4 -7
v -7 4 -8
v -7 5 -6
v -7 5 -7
v -7 11 -6
v -7 11 -7
v -7 12 -7
v -7 12 -8
v -7 14 -6
v -7 14 -8
v -6 1 -6
v -6 1 -8
v -6 2 -6
v -6 2 -8
v -6 4 -7
v -6 4 -8
v -6 5 -7
v -6 11 -7
v -6 12 -7
v -6 12 -8
v -6 14 -6
v -6 14 -8
v -6 15 -6
v -6 15 -8
v 3 1 -6
v 3 1 -7
v 3 2 -6
v 3 2 -7
v 3 14 -6
v 3 14 -7
v 3 15 -6
v 3 15 -7
v 4 1 -7
v 4 1 -8
v 4 2 -7
v 4 2 -8
v 4 14 -7
v 4 14 -8
v 4 15 -7
v 4 15 -8
v 5 3 -7
v 5 3 -8
v 5 13 -7
v 5 13 -8
v 6 2 -6
v 6 2 -7
v 6 5 -6
v 6 5 -7
v 6 11 -6
v 6 11 -7
v 6 14 -6
v 6 14 -7
v -6 2 -6
v -6 2 -7
v -6 5 -6
v -6 5 -7
v -6 11 -6
v -6 11 -7
v -6 14 -6
v -6 14 -7
v -5 3 -7
v -5 3 -8
v -5 13 -7
v -5 13 -8
v -4 1 -7
v -4 1 -8
v -4 2 -7
v -4 2 -8
v -4 14 -7
v -4 14 -8
v -4 15 -7
v -4 15 -8
v -3 1 -6
v -3 1 -7
v -3 2 -6
v -3 2 -7
v -3 14 -6
v -3 14 -7
v -3 15 -6
v -3 15 -7
v 6 1 -6
v 6 1 -8
v 6 2 -6
v 6 2 -8
v 6 4 -7
v 6 4 -8
v 6 5 -7
v 6 11 -7
v 6 12 -7
v 6 12 -8
v 6 14 -6
v 6 14 -8
v 6 15 -6
v 6 15 -8
v 7 2 -6
v 7 2 -8
v 7 4 -7
v 7 4 -8
v 7 5 -6
v 7 5 -7
v 7 11 -6
v 7 11 -7
v 7 12 -7
v 7 12 -8
v 7 14 -6
v 7 14 -8
v -7 2 -6
v -7 5 -6
v -7 11 -6
v -7 14 -6
v -6 1 -6
v -6 2 -6
v -6 5 -6
v -6 11 -6
v -6 14 -6
v -6 15 -6
v -3 1 -6
v -3 2 -6
v -3 14 -6
v -3 15 -6
v 3 1 -6
v 3 2 -6
v 3 14 -6
v 3 15 -6
v 6 1 -6
v 6 2 -6
v 6 5 -6
v 6 11 -6
v 6 14 -6
v 6 15 -6
v 7 2 -6
v 7 5 -6
v 7 11 -6
v 7 14 -6
v -6 2 -7
v -6 5 -7
v -6 11 -7
v -6 14 -7
v -5 3 -7
v -5 13 -7
v -3 2 -7
v -3 14 -7
v 3 2 -7
v 3 14 -7
v 5 3 -7
v 5 13 -7
v 6 2 -7
v 6 5 -7
v 6 11 -7
v 6 14 -7
v -7 4 -7
v -7 5 -7
v -7 11 -7
v -7 12 -7
v -6 4 -7
v -6 5 -7
v -6 11 -7
v -6 12 -7
v -4 1 -7
v -4 2 -7
v -4 14 -7
v -4 15 -7
v -3 1 -7
v -3 2 -7
v -3 14 -7
v -3 15 -7
v 3 1 -7
v 3 2 -7
v 3 14 -7
v 3 15 -7
v 4 1 -7
v 4 2 -7
v 4 14 -7
v 4 15 -7
v 6 4 -7
v 6 5 -7
v 6 11 -7
v 6 12 -7
v 7 4 -7
v 7 5 -7
v 7 11 -7
v 7 12 -7
v -7 2 -8
v -7 4 -8
v -7 12 -8
v -7 14 -8
v -6 1 -8
v -6 2 -8
v -6 4 -8
v -6 12 -8
v -6 14 -8
v -6 15 -8
v -5 3 -8
v -5 13 -8
v -4 1 -8
v -4 2 -8
v -4 14 -8
v -4 15 -8
v 4 1 -8
v 4 2 -8
v 4 14 -8
v 4 15 -8
v 5 3 -8
v 5 13 -8
v 6 1 -8
v 6 2 -8
v 6 4 -8
v 6 12 -8
v 6 14 -8
v 6 15 -8
v 7 2 -8
v 7 4 -8
v 7 12 -8
v 7 14 -8
v -6 1 -6
v -3 1 -6
v 3 1 -6
v 6 1 -6
v -4 1 -7
v -3 1 -7
v 3 1 -7
v 4 1 -7
v -6 1 -8
v -4 1 -8
v 4 1 -8
v 6 1 -8
v -7 2 -6
v -6 2 -6
v 6 2 -6
v 7 2 -6
v -4 2 -7
v -3 2 -7
v 3 2 -7
v 4 2 -7
v -7 2 -8
v -6 2 -8
v -4 2 -8
v 4 2 -8
v 6 2 -8
v 7 2 -8
v -7 11 -6
v -6 11 -6
v 6 11 -6
v 7 11 -6
v -7 11 -7
v -6 11 -7
v 6 11 -7
v 7 11 -7
v -7 12 -7
v -6 12 -7
v 6 12 -7
v 7 12 -7
v -7 12 -8
v -6 12 -8
v 6 12 -8
v 7 12 -8
v -5 13 -7
v 5 13 -7
v -5 13 -8
v 5 13 -8
v -6 14 -6
v -3 14 -6
v 3 14 -6
v 6 14 -6
v -6 14 -7
v -3 14 -7
v 3 14 -7
v 6 14 -7
v -6 2 -6
v -3 2 -6
v 3 2 -6
v 6 2 -6
v -6 2 -7
v -3 2 -7
v 3 2 -7
v 6 2 -7
v -5 3 -7
v 5 3 -7
v -5 3 -8
v 5 3 -8
v -7 4 -7
v -6 4 -7
v 6 4 -7
v 7 4 -7
v -7 4 -8
v -6 4 -8
v 6 4 -8
v 7 4 -8
v -7 5 -6
v -6 5 -6
v 6 5 -6
v 7 5 -6
v -7 5 -7
v -6 5 -7
v 6 5 -7
v 7 5 -7
v -7 14 -6
v -6 14 -6
v 6 14 -6
v 7 14 -6
v -4 14 -7
v -3 14 -7
v 3 14 -7
v 4 14 -7
v -7 14 -8
v -6 14 -8
v -4 14 -8
v 4 14 -8
v 6 14 -8
v 7 14 -8
v -6 15 -6
v -3 15 -6
v 3 15 -6
v 6 15 -6
v -4 15 -7
v -3 15 -7
v 3 15 -7
v 4 15 -7
v -6 15 -8
v -4 15 -8
v 4 15 -8
v 6 15 -8

# faces
f 3/1/1 2/1/1 1/1/1
f 4/1/1 2/1/1 3/1/1
f 5/1/1 3/1/1 1/1/1
f 6/1/1 3/1/1 5/1/1
f 9/1/1 8/1/1 7/1/1
f 11/1/1 9/1/1 7/1/1
f 11/1/1 10/1/1 9/1/1
f 12/1/1 10/1/1 11/1/1
f 15/1/1 14/1/1 13/1/1
f 16/1/1 14/1/1 15/1/1
f 19/1/1 18/1/1 17/1/1
f 20/1/1 18/1/1 19/1/1
f 21/1/1 18/1/1 20/1/1
f 22/1/1 18/1/1 21/1/1
f 25/1/1 24/1/1 23/1/1
f 26/1/1 24/1/1 25/1/1
f 29/1/1 28/1/1 27/1/1
f 30/1/1 28/1/1 29/1/1
f 33/1/1 32/1/1 31/1/1
f 34/1/1 32/1/1 33/1/1
f 37/1/1 36/1/1 35/1/1
f 38/1/1 36/1/1 37/1/1
f 41/1/1 40/1/1 39/1/1
f 42/1/1 40/1/1 41/1/1
f 45/1/1 44/1/1 43/1/1
f 46/1/1 44/1/1 45/1/1
f 49/1/1 48/1/1 47/1/1
f 50/1/1 48/1/1 49/1/1
f 53/1/1 52/1/1 51/1/1
f 54/1/1 52/1/1 53/1/1
f 55/1/2 56/1/2 57/1/2
f 57/1/2 56/1/2 58/1/2
f 59/1/2 60/1/2 61/1/2
f 61/1/2 60/1/2 62/1/2
f 63/1/2 64/1/2 65/1/2
f 65/1/2 64/1/2 66/1/2
f 67/1/2 68/1/2 69/1/2
f 69/1/2 68/1/2 70/1/2
f 71/1/2 72/1/2 73/1/2
f 73/1/2 72/1/2 74/1/2
f 75/1/2 76/1/2 77/1/2
f 77/1/2 76/1/2 78/1/2
f 79/1/2 80/1/2 81/1/2
f 81/1/2 80/1/2 82/1/2
f 83/1/2 84/1/2 85/1/2
f 85/1/2 84/1/2 86/1/2
f 87/1/2 88/1/2 89/1/2
f 89/1/2 88/1/2 90/1/2
f 90/1/2 88/1/2 91/1/2
f 91/1/2 88/1/2 92/1/2
f 93/1/2 94/1/2 95/1/2
f 95/1/2 94/1/2 96/1/2
f 97/1/2 98/1/2 99/1/2
f 99/1/2 98/1/2 100/1/2
f 97/1/2 99/1/2 101/1/2
f 101/1/2 99/1/2 102/1/2
f 103/1/2 104/1/2 105/1/2
f 103/1/2 105/1/2 107/1/2
f 105/1/2 106/1/2 107/1/2
f 107/1/2 106/1/2 108/1/2
f 114/1/3 110/1/3 109/1/3
f 115/1/3 110/1/3 114/1/3
f 116/1/3 112/1/3 111/1/3
f 117/1/3 112/1/3 116/1/3
f 119/1/3 114/1/3 113/1/3
f 120/1/3 114/1/3 119/1/3
f 121/1/3 118/1/3 117/1/3
f 122/1/3 118/1/3 121/1/3
f 127/1/3 124/1/3 123/1/3
f 128/1/3 124/1/3 127/1/3
f 131/1/3 126/1/3 125/1/3
f 132/1/3 126/1/3 131/1/3
f 133/1/3 129/1/3 128/1/3
f 134/1/3 129/1/3 133/1/3
f 135/1/3 131/1/3 130/1/3
f 136/1/3 131/1/3 135/1/3
f 141/1/3 138/1/3 137/1/3
f 141/1/3 140/1/3 139/1/3
f 141/1/3 139/1/3 138/1/3
f 142/1/3 140/1/3 141/1/3
f 143/1/3 141/1/3 137/1/3
f 144/1/3 140/1/3 142/1/3
f 145/1/3 141/1/3 143/1/3
f 146/1/3 144/1/3 142/1/3
f 147/1/3 141/1/3 145/1/3
f 148/1/3 146/1/3 142/1/3
f 149/1/3 147/1/3 145/1/3
f 149/1/3 148/1/3 147/1/3
f 150/1/3 148/1/3 149/1/3
f 151/1/3 148/1/3 150/1/3
f 152/1/3 146/1/3 148/1/3
f 152/1/3 148/1/3 151/1/3
f 153/1/4 154/1/4 157/1/4
f 157/1/4 154/1/4 158/1/4
f 155/1/4 156/1/4 159/1/4
f 159/1/4 156/1/4 160/1/4
f 161/1/4 162/1/4 165/1/4
f 165/1/4 162/1/4 166/1/4
f 163/1/4 164/1/4 167/1/4
f 167/1/4 164/1/4 168/1/4
f 169/1/4 170/1/4 173/1/4
f 173/1/4 170/1/4 174/1/4
f 171/1/4 172/1/4 175/1/4
f 175/1/4 172/1/4 176/1/4
f 177/1/4 178/1/4 181/1/4
f 181/1/4 178/1/4 182/1/4
f 179/1/4 180/1/4 183/1/4
f 183/1/4 180/1/4 184/1/4
f 185/1/4 186/1/4 190/1/4
f 190/1/4 186/1/4 191/1/4
f 187/1/4 188/1/4 192/1/4
f 192/1/4 188/1/4 193/1/4
f 190/1/4 191/1/4 195/1/4
f 193/1/4 194/1/4 195/1/4
f 192/1/4 193/1/4 195/1/4
f 191/1/4 192/1/4 195/1/4
f 189/1/4 190/1/4 195/1/4
f 195/1/4 194/1/4 196/1/4
f 189/1/4 195/1/4 197/1/4
f 197/1/4 195/1/4 198/1/4
f 196/1/4 194/1/4 199/1/4
f 199/1/4 194/1/4 200/1/4
f 198/1/4 195/1/4 202/1/4
f 196/1/4 199/1/4 203/1/4
f 201/1/4 202/1/4 205/1/4
f 202/1/4 195/1/4 205/1/4
f 203/1/4 204/1/4 206/1/4
f 196/1/4 203/1/4 206/1/4
f 201/1/4 205/1/4 207/1/4
f 205/1/4 206/1/4 207/1/4
f 207/1/4 206/1/4 208/1/4
f 208/1/4 206/1/4 209/1/4
f 209/1/4 206/1/4 210/1/4
f 206/1/4 204/1/4 211/1/4
f 210/1/4 206/1/4 211/1/4
f 211/1/4 204/1/4 212/1/4
f 208/1/4 209/1/4 213/1/4
f 213/1/4 209/1/4 214/1/4
f 210/1/4 211/1/4 215/1/4
f 215/1/4 211/1/4 216/1/4
f 221/1/5 218/1/5 217/1/5
f 222/1/5 218/1/5 221/1/5
f 223/1/5 220/1/5 219/1/5
f 224/1/5 220/1/5 223/1/5
f 225/1/5 221/1/5 217/1/5
f 226/1/5 221/1/5 225/1/5
f 227/1/5 220/1/5 224/1/5
f 228/1/5 220/1/5 227/1/5
f 237/1/5 230/1/5 229/1/5
f 238/1/5 230/1/5 237/1/5
f 239/1/5 236/1/5 235/1/5
f 239/1/5 234/1/5 233/1/5
f 239/1/5 235/1/5 234/1/5
f 240/1/5 236/1/5 239/1/5
f 241/1/5 232/1/5 231/1/5
f 242/1/5 232/1/5 241/1/5
f 247/1/5 244/1/5 243/1/5
f 248/1/5 244/1/5 247/1/5
f 249/1/5 246/1/5 245/1/5
f 250/1/5 246/1/5 249/1/5
f 255/1/5 252/1/5 251/1/5
f 256/1/5 252/1/5 255/1/5
f 257/1/5 254/1/5 253/1/5
f 258/1/5 254/1/5 257/1/5
f 261/1/5 260/1/5 259/1/5
f 262/1/5 260/1/5 261/1/5
f 267/1/5 264/1/5 263/1/5
f 268/1/5 264/1/5 267/1/5
f 269/1/5 266/1/5 265/1/5
f 270/1/5 266/1/5 269/1/5
f 271/1/6 272/1/6 275/1/6
f 275/1/6 272/1/6 276/1/6
f 273/1/6 274/1/6 277/1/6
f 277/1/6 274/1/6 278/1/6
f 279/1/6 280/1/6 281/1/6
f 281/1/6 280/1/6 282/1/6
f 283/1/6 284/1/6 287/1/6
f 287/1/6 284/1/6 288/1/6
f 285/1/6 286/1/6 289/1/6
f 289/1/6 286/1/6 290/1/6
f 291/1/6 292/1/6 295/1/6
f 295/1/6 292/1/6 296/1/6
f 293/1/6 294/1/6 297/1/6
f 297/1/6 294/1/6 298/1/6
f 299/1/6 300/1/6 307/1/6
f 307/1/6 300/1/6 308/1/6
f 305/1/6 306/1/6 309/1/6
f 303/1/6 304/1/6 309/1/6
f 304/1/6 305/1/6 309/1/6
f 309/1/6 306/1/6 310/1/6
f 301/1/6 302/1/6 311/1/6
f 311/1/6 302/1/6 312/1/6
f 313/1/6 314/1/6 317/1/6
f 317/1/6 314/1/6 318/1/6
f 315/1/6 316/1/6 319/1/6
f 319/1/6 316/1/6 320/1/6
f 313/1/6 317/1/6 321/1/6
f 321/1/6 317/1/6 322/1/6
f 320/1/6 316/1/6 323/1/6
f 323/1/6 316/1/6 324/1/6
