# Blender v2.74 (sub 0) OBJ File: 'initial_scaffold.blend'
# www.blender.org
mtllib initial_scaffold.mtl
o Cube
v 1.000000 0.000000 -1.000000
v 1.000000 0.000000 0.000000
v 0.000000 0.000000 0.000000
v 0.000000 0.000000 -1.000000
v 1.000000 1.000000 -1.000000
v 1.000000 1.000000 0.000000
v 0.000000 1.000000 0.000000
v 0.000000 1.000000 -1.000000
v 0.100000 0.000000 -1.000000
v 0.100000 0.000000 0.000000
v 0.100000 1.000000 -1.000000
v 0.100000 1.000000 0.000000
v 0.900000 0.000000 -1.000000
v 0.900000 0.000000 0.000000
v 0.900000 1.000000 -1.000000
v 0.900000 1.000000 0.000000
v 1.000000 0.000000 -0.900000
v 0.000000 0.000000 -0.900000
v 1.000000 1.000000 -0.900000
v 0.000000 1.000000 -0.900000
v 0.100000 1.000000 -0.900000
v 0.100000 0.000000 -0.900000
v 0.900000 0.000000 -0.900000
v 0.900000 1.000000 -0.900000
v 1.000000 0.000000 -0.100000
v 1.000000 1.000000 -0.100000
v 0.100000 1.000000 -0.100000
v 0.900000 1.000000 -0.100000
v 0.000000 0.000000 -0.100000
v 0.000000 1.000000 -0.100000
v 0.100000 0.000000 -0.100000
v 0.900000 0.000000 -0.100000
v 1.000000 0.100000 -1.000000
v 1.000000 0.100000 0.000000
v 0.000000 0.100000 0.000000
v 0.000000 0.100000 -1.000000
v 0.100000 0.100000 -1.000000
v 0.100000 0.100000 0.000000
v 0.900000 0.100000 0.000000
v 0.900000 0.100000 -1.000000
v 0.000000 0.100000 -0.900000
v 1.000000 0.100000 -0.900000
v 0.000000 0.100000 -0.100000
v 1.000000 0.100000 -0.100000
v 1.000000 0.900000 -1.000000
v 1.000000 0.900000 0.000000
v 0.000000 0.900000 0.000000
v 0.000000 0.900000 -1.000000
v 0.100000 0.900000 -1.000000
v 0.900000 0.900000 -1.000000
v 0.100000 0.900000 0.000000
v 0.900000 0.900000 0.000000
v 0.000000 0.900000 -0.900000
v 1.000000 0.900000 -0.900000
v 0.000000 0.900000 -0.100000
v 1.000000 0.900000 -0.100000
vn 0.000000 -1.000000 0.000000
vn 0.000000 1.000000 0.000000
vn 1.000000 0.000000 0.000000
vn 0.000000 0.000000 1.000000
vn -1.000000 0.000000 0.000000
vn 0.000000 0.000000 -1.000000
vn 0.707100 0.707100 0.000000
vn 0.000000 0.707100 0.707100
vn 0.577400 0.577400 0.577400
vn 0.707100 0.000000 0.707100
vn 0.577400 -0.577400 0.577400
vn 0.577400 -0.577400 -0.577400
vn 0.707100 -0.707100 0.000000
vn 0.707100 0.000000 -0.707100
vn -0.577400 0.577400 0.577400
vn -0.707100 0.707100 0.000000
vn -0.577400 0.577400 -0.577400
vn 0.000000 0.707100 -0.707100
vn 0.577400 0.577400 -0.577400
vn 0.000000 -0.707100 0.707100
vn -0.577400 -0.577400 0.577400
vn -0.707100 -0.707100 0.000000
vn -0.707100 0.000000 0.707100
vn -0.707100 0.000000 -0.707100
vn -0.577400 -0.577400 -0.577400
vn 0.000000 -0.707100 -0.707100
usemtl Material
s off
f 31//1 10//1 3//1 29//1
f 27//2 30//2 7//2 12//2
f 56//3 26//3 6//3 46//3
f 51//4 12//4 7//4 47//4
f 53//5 20//5 8//5 48//5
f 37//6 9//6 4//6 36//6
f 40//6 13//6 9//6 37//6
f 52//4 16//4 12//4 51//4
f 28//2 27//2 12//2 16//2
f 32//1 14//1 10//1 31//1
f 25//1 2//1 14//1 32//1
f 26//2 28//2 16//2 6//2
f 46//4 6//4 16//4 52//4
f 33//6 1//6 13//6 40//6
f 5//2 15//2 24//2 19//2
f 1//1 17//1 23//1 13//1
f 13//1 23//1 22//1 9//1
f 15//2 11//2 21//2 24//2
f 55//5 30//5 20//5 53//5
f 45//3 5//3 19//3 54//3
f 11//2 8//2 20//2 21//2
f 9//1 22//1 18//1 4//1
f 47//5 7//5 30//5 55//5
f 19//2 24//2 28//2 26//2
f 17//1 25//1 32//1 23//1
f 54//3 19//3 26//3 56//3
f 21//2 20//2 30//2 27//2
f 22//1 31//1 29//1 18//1
f 17//3 42//3 44//3 25//3
f 3//5 35//5 43//5 29//5
f 1//3 33//3 42//3 17//3
f 29//5 43//5 41//5 18//5
f 45//6 33//6 40//6 50//6
f 2//4 34//4 39//4 14//4
f 14//4 39//4 38//4 10//4
f 49//6 37//6 36//6 48//6
f 18//5 41//5 36//5 4//5
f 10//4 38//4 35//4 3//4
f 25//3 44//3 34//3 2//3
f 11//6 49//6 48//6 8//6
f 15//6 50//6 49//6 11//6
f 5//6 45//6 50//6 15//6
f 35//5 47//5 55//5 43//5
f 33//3 45//3 54//3 42//3
f 34//4 46//4 52//4 39//4
f 41//5 53//5 48//5 36//5
f 38//4 51//4 47//4 35//4
f 44//3 56//3 46//3 34//3
f 22//7 41//7 43//7 31//7
f 22//8 23//8 40//8 37//8
f 41//9 22//9 37//9
f 53//10 41//10 37//10 49//10
f 53//11 49//11 21//11
f 55//12 27//12 51//12
f 21//13 27//13 55//13 53//13
f 38//14 43//14 55//14 51//14
f 42//15 40//15 23//15
f 32//16 44//16 42//16 23//16
f 39//17 44//17 32//17
f 31//18 38//18 39//18 32//18
f 43//19 38//19 31//19
f 21//20 49//20 50//20 24//20
f 50//21 54//21 24//21
f 28//22 24//22 54//22 56//22
f 54//23 50//23 40//23 42//23
f 39//24 52//24 56//24 44//24
f 56//25 52//25 28//25
f 27//26 28//26 52//26 51//26
