# MagicaVoxel @ Ephtracy

# material
mtllib mv-frame.mtl
usemtl palette

# normals
vn -1 0 0
vn 1 0 0
vn 0 0 1
vn 0 0 -1
vn 0 -1 0
vn 0 1 0

# texcoords
vt 0.970703 0.5

# verts
v -8 0 7
v -8 0 -7
v -8 1 8
v -8 1 7
v -8 1 6
v -8 1 -6
v -8 1 -7
v -8 1 -8
v -8 2 7
v -8 2 6
v -8 2 -6
v -8 2 -7
v -8 14 7
v -8 14 6
v -8 14 -6
v -8 14 -7
v -8 15 8
v -8 15 7
v -8 15 6
v -8 15 -6
v -8 15 -7
v -8 15 -8
v -8 16 7
v -8 16 -7
v -7 0 8
v -7 0 7
v -7 0 -7
v -7 0 -8
v -7 1 8
v -7 1 7
v -7 1 -7
v -7 1 -8
v -7 15 8
v -7 15 7
v -7 15 -7
v -7 15 -8
v -7 16 8
v -7 16 7
v -7 16 -7
v -7 16 -8
v 6 0 7
v 6 0 6
v 6 0 -6
v 6 0 -7
v 6 1 8
v 6 1 7
v 6 1 6
v 6 1 -6
v 6 1 -7
v 6 1 -8
v 6 2 8
v 6 2 7
v 6 2 -7
v 6 2 -8
v 6 14 8
v 6 14 7
v 6 14 -7
v 6 14 -8
v 6 15 8
v 6 15 7
v 6 15 6
v 6 15 -6
v 6 15 -7
v 6 15 -8
v 6 16 7
v 6 16 6
v 6 16 -6
v 6 16 -7
v 7 0 6
v 7 0 -6
v 7 1 7
v 7 1 6
v 7 1 -6
v 7 1 -7
v 7 2 8
v 7 2 7
v 7 2 6
v 7 2 -6
v 7 2 -7
v 7 2 -8
v 7 14 8
v 7 14 7
v 7 14 6
v 7 14 -6
v 7 14 -7
v 7 14 -8
v 7 15 7
v 7 15 6
v 7 15 -6
v 7 15 -7
v 7 16 6
v 7 16 -6
v -7 0 6
v -7 0 -6
v -7 1 7
v -7 1 6
v -7 1 -6
v -7 1 -7
v -7 2 8
v -7 2 7
v -7 2 6
v -7 2 -6
v -7 2 -7
v -7 2 -8
v -7 14 8
v -7 14 7
v -7 14 6
v -7 14 -6
v -7 14 -7
v -7 14 -8
v -7 15 7
v -7 15 6
v -7 15 -6
v -7 15 -7
v -7 16 6
v -7 16 -6
v -6 0 7
v -6 0 6
v -6 0 -6
v -6 0 -7
v -6 1 8
v -6 1 7
v -6 1 6
v -6 1 -6
v -6 1 -7
v -6 1 -8
v -6 2 8
v -6 2 7
v -6 2 -7
v -6 2 -8
v -6 14 8
v -6 14 7
v -6 14 -7
v -6 14 -8
v -6 15 8
v -6 15 7
v -6 15 6
v -6 15 -6
v -6 15 -7
v -6 15 -8
v -6 16 7
v -6 16 6
v -6 16 -6
v -6 16 -7
v 7 0 8
v 7 0 7
v 7 0 -7
v 7 0 -8
v 7 1 8
v 7 1 7
v 7 1 -7
v 7 1 -8
v 7 15 8
v 7 15 7
v 7 15 -7
v 7 15 -8
v 7 16 8
v 7 16 7
v 7 16 -7
v 7 16 -8
v 8 0 7
v 8 0 -7
v 8 1 8
v 8 1 7
v 8 1 6
v 8 1 -6
v 8 1 -7
v 8 1 -8
v 8 2 7
v 8 2 6
v 8 2 -6
v 8 2 -7
v 8 14 7
v 8 14 6
v 8 14 -6
v 8 14 -7
v 8 15 8
v 8 15 7
v 8 15 6
v 8 15 -6
v 8 15 -7
v 8 15 -8
v 8 16 7
v 8 16 -7
v -8 1 8
v -8 15 8
v -7 0 8
v -7 1 8
v -7 2 8
v -7 14 8
v -7 15 8
v -7 16 8
v -6 1 8
v -6 2 8
v -6 14 8
v -6 15 8
v 6 1 8
v 6 2 8
v 6 14 8
v 6 15 8
v 7 0 8
v 7 1 8
v 7 2 8
v 7 14 8
v 7 15 8
v 7 16 8
v 8 1 8
v 8 15 8
v -8 0 7
v -8 1 7
v -8 15 7
v -8 16 7
v -7 0 7
v -7 1 7
v -7 15 7
v -7 16 7
v 7 0 7
v 7 1 7
v 7 15 7
v 7 16 7
v 8 0 7
v 8 1 7
v 8 15 7
v 8 16 7
v -8 1 -6
v -8 2 -6
v -8 14 -6
v -8 15 -6
v -7 0 -6
v -7 1 -6
v -7 2 -6
v -7 14 -6
v -7 15 -6
v -7 16 -6
v -6 0 -6
v -6 1 -6
v -6 15 -6
v -6 16 -6
v 6 0 -6
v 6 1 -6
v 6 15 -6
v 6 16 -6
v 7 0 -6
v 7 1 -6
v 7 2 -6
v 7 14 -6
v 7 15 -6
v 7 16 -6
v 8 1 -6
v 8 2 -6
v 8 14 -6
v 8 15 -6
v -8 2 -7
v -8 14 -7
v -7 1 -7
v -7 2 -7
v -7 14 -7
v -7 15 -7
v -6 0 -7
v -6 1 -7
v -6 2 -7
v -6 14 -7
v -6 15 -7
v -6 16 -7
v 6 0 -7
v 6 1 -7
v 6 2 -7
v 6 14 -7
v 6 15 -7
v 6 16 -7
v 7 1 -7
v 7 2 -7
v 7 14 -7
v 7 15 -7
v 8 2 -7
v 8 14 -7
v -8 2 7
v -8 14 7
v -7 1 7
v -7 2 7
v -7 14 7
v -7 15 7
v -6 0 7
v -6 1 7
v -6 2 7
v -6 14 7
v -6 15 7
v -6 16 7
v 6 0 7
v 6 1 7
v 6 2 7
v 6 14 7
v 6 15 7
v 6 16 7
v 7 1 7
v 7 2 7
v 7 14 7
v 7 15 7
v 8 2 7
v 8 14 7
v -8 1 6
v -8 2 6
v -8 14 6
v -8 15 6
v -7 0 6
v -7 1 6
v -7 2 6
v -7 14 6
v -7 15 6
v -7 16 6
v -6 0 6
v -6 1 6
v -6 15 6
v -6 16 6
v 6 0 6
v 6 1 6
v 6 15 6
v 6 16 6
v 7 0 6
v 7 1 6
v 7 2 6
v 7 14 6
v 7 15 6
v 7 16 6
v 8 1 6
v 8 2 6
v 8 14 6
v 8 15 6
v -8 0 -7
v -8 1 -7
v -8 15 -7
v -8 16 -7
v -7 0 -7
v -7 1 -7
v -7 15 -7
v -7 16 -7
v 7 0 -7
v 7 1 -7
v 7 15 -7
v 7 16 -7
v 8 0 -7
v 8 1 -7
v 8 15 -7
v 8 16 -7
v -8 1 -8
v -8 15 -8
v -7 0 -8
v -7 1 -8
v -7 2 -8
v -7 14 -8
v -7 15 -8
v -7 16 -8
v -6 1 -8
v -6 2 -8
v -6 14 -8
v -6 15 -8
v 6 1 -8
v 6 2 -8
v 6 14 -8
v 6 15 -8
v 7 0 -8
v 7 1 -8
v 7 2 -8
v 7 14 -8
v 7 15 -8
v 7 16 -8
v 8 1 -8
v 8 15 -8
v -7 0 8
v 7 0 8
v -8 0 7
v -7 0 7
v -6 0 7
v 6 0 7
v 7 0 7
v 8 0 7
v -7 0 6
v -6 0 6
v 6 0 6
v 7 0 6
v -7 0 -6
v -6 0 -6
v 6 0 -6
v 7 0 -6
v -8 0 -7
v -7 0 -7
v -6 0 -7
v 6 0 -7
v 7 0 -7
v 8 0 -7
v -7 0 -8
v 7 0 -8
v -8 1 8
v -7 1 8
v 7 1 8
v 8 1 8
v -8 1 7
v -7 1 7
v 7 1 7
v 8 1 7
v -8 1 -7
v -7 1 -7
v 7 1 -7
v 8 1 -7
v -8 1 -8
v -7 1 -8
v 7 1 -8
v 8 1 -8
v -7 14 8
v -6 14 8
v 6 14 8
v 7 14 8
v -8 14 7
v -7 14 7
v -6 14 7
v 6 14 7
v 7 14 7
v 8 14 7
v -8 14 6
v -7 14 6
v 7 14 6
v 8 14 6
v -8 14 -6
v -7 14 -6
v 7 14 -6
v 8 14 -6
v -8 14 -7
v -7 14 -7
v -6 14 -7
v 6 14 -7
v 7 14 -7
v 8 14 -7
v -7 14 -8
v -6 14 -8
v 6 14 -8
v 7 14 -8
v -6 15 8
v 6 15 8
v -7 15 7
v -6 15 7
v 6 15 7
v 7 15 7
v -8 15 6
v -7 15 6
v -6 15 6
v 6 15 6
v 7 15 6
v 8 15 6
v -8 15 -6
v -7 15 -6
v -6 15 -6
v 6 15 -6
v 7 15 -6
v 8 15 -6
v -7 15 -7
v -6 15 -7
v 6 15 -7
v 7 15 -7
v -6 15 -8
v 6 15 -8
v -6 1 8
v 6 1 8
v -7 1 7
v -6 1 7
v 6 1 7
v 7 1 7
v -8 1 6
v -7 1 6
v -6 1 6
v 6 1 6
v 7 1 6
v 8 1 6
v -8 1 -6
v -7 1 -6
v -6 1 -6
v 6 1 -6
v 7 1 -6
v 8 1 -6
v -7 1 -7
v -6 1 -7
v 6 1 -7
v 7 1 -7
v -6 1 -8
v 6 1 -8
v -7 2 8
v -6 2 8
v 6 2 8
v 7 2 8
v -8 2 7
v -7 2 7
v -6 2 7
v 6 2 7
v 7 2 7
v 8 2 7
v -8 2 6
v -7 2 6
v 7 2 6
v 8 2 6
v -8 2 -6
v -7 2 -6
v 7 2 -6
v 8 2 -6
v -8 2 -7
v -7 2 -7
v -6 2 -7
v 6 2 -7
v 7 2 -7
v 8 2 -7
v -7 2 -8
v -6 2 -8
v 6 2 -8
v 7 2 -8
v -8 15 8
v -7 15 8
v 7 15 8
v 8 15 8
v -8 15 7
v -7 15 7
v 7 15 7
v 8 15 7
v -8 15 -7
v -7 15 -7
v 7 15 -7
v 8 15 -7
v -8 15 -8
v -7 15 -8
v 7 15 -8
v 8 15 -8
v -7 16 8
v 7 16 8
v -8 16 7
v -7 16 7
v -6 16 7
v 6 16 7
v 7 16 7
v 8 16 7
v -7 16 6
v -6 16 6
v 6 16 6
v 7 16 6
v -7 16 -6
v -6 16 -6
v 6 16 -6
v 7 16 -6
v -8 16 -7
v -7 16 -7
v -6 16 -7
v 6 16 -7
v 7 16 -7
v 8 16 -7
v -7 16 -8
v 7 16 -8

# faces
f 4/1/1 2/1/1 1/1/1
f 5/1/1 2/1/1 4/1/1
f 6/1/1 2/1/1 5/1/1
f 7/1/1 2/1/1 6/1/1
f 9/1/1 4/1/1 3/1/1
f 9/1/1 5/1/1 4/1/1
f 10/1/1 5/1/1 9/1/1
f 11/1/1 8/1/1 7/1/1
f 11/1/1 7/1/1 6/1/1
f 12/1/1 8/1/1 11/1/1
f 13/1/1 9/1/1 3/1/1
f 16/1/1 8/1/1 12/1/1
f 17/1/1 14/1/1 13/1/1
f 17/1/1 13/1/1 3/1/1
f 18/1/1 14/1/1 17/1/1
f 19/1/1 14/1/1 18/1/1
f 20/1/1 16/1/1 15/1/1
f 21/1/1 8/1/1 16/1/1
f 21/1/1 16/1/1 20/1/1
f 22/1/1 8/1/1 21/1/1
f 23/1/1 19/1/1 18/1/1
f 23/1/1 20/1/1 19/1/1
f 23/1/1 21/1/1 20/1/1
f 24/1/1 21/1/1 23/1/1
f 29/1/1 26/1/1 25/1/1
f 30/1/1 26/1/1 29/1/1
f 31/1/1 28/1/1 27/1/1
f 32/1/1 28/1/1 31/1/1
f 37/1/1 34/1/1 33/1/1
f 38/1/1 34/1/1 37/1/1
f 39/1/1 36/1/1 35/1/1
f 40/1/1 36/1/1 39/1/1
f 46/1/1 42/1/1 41/1/1
f 47/1/1 42/1/1 46/1/1
f 48/1/1 44/1/1 43/1/1
f 49/1/1 44/1/1 48/1/1
f 51/1/1 46/1/1 45/1/1
f 52/1/1 46/1/1 51/1/1
f 53/1/1 50/1/1 49/1/1
f 54/1/1 50/1/1 53/1/1
f 59/1/1 56/1/1 55/1/1
f 60/1/1 56/1/1 59/1/1
f 63/1/1 58/1/1 57/1/1
f 64/1/1 58/1/1 63/1/1
f 65/1/1 61/1/1 60/1/1
f 66/1/1 61/1/1 65/1/1
f 67/1/1 63/1/1 62/1/1
f 68/1/1 63/1/1 67/1/1
f 72/1/1 70/1/1 69/1/1
f 73/1/1 70/1/1 72/1/1
f 76/1/1 72/1/1 71/1/1
f 77/1/1 72/1/1 76/1/1
f 78/1/1 74/1/1 73/1/1
f 79/1/1 74/1/1 78/1/1
f 81/1/1 76/1/1 75/1/1
f 82/1/1 76/1/1 81/1/1
f 85/1/1 80/1/1 79/1/1
f 86/1/1 80/1/1 85/1/1
f 87/1/1 83/1/1 82/1/1
f 88/1/1 83/1/1 87/1/1
f 89/1/1 85/1/1 84/1/1
f 90/1/1 85/1/1 89/1/1
f 91/1/1 89/1/1 88/1/1
f 92/1/1 89/1/1 91/1/1
f 93/1/2 94/1/2 96/1/2
f 96/1/2 94/1/2 97/1/2
f 95/1/2 96/1/2 100/1/2
f 100/1/2 96/1/2 101/1/2
f 97/1/2 98/1/2 102/1/2
f 102/1/2 98/1/2 103/1/2
f 99/1/2 100/1/2 105/1/2
f 105/1/2 100/1/2 106/1/2
f 103/1/2 104/1/2 109/1/2
f 109/1/2 104/1/2 110/1/2
f 106/1/2 107/1/2 111/1/2
f 111/1/2 107/1/2 112/1/2
f 108/1/2 109/1/2 113/1/2
f 113/1/2 109/1/2 114/1/2
f 112/1/2 113/1/2 115/1/2
f 115/1/2 113/1/2 116/1/2
f 117/1/2 118/1/2 122/1/2
f 122/1/2 118/1/2 123/1/2
f 119/1/2 120/1/2 124/1/2
f 124/1/2 120/1/2 125/1/2
f 121/1/2 122/1/2 127/1/2
f 127/1/2 122/1/2 128/1/2
f 125/1/2 126/1/2 129/1/2
f 129/1/2 126/1/2 130/1/2
f 131/1/2 132/1/2 135/1/2
f 135/1/2 132/1/2 136/1/2
f 133/1/2 134/1/2 139/1/2
f 139/1/2 134/1/2 140/1/2
f 136/1/2 137/1/2 141/1/2
f 141/1/2 137/1/2 142/1/2
f 138/1/2 139/1/2 143/1/2
f 143/1/2 139/1/2 144/1/2
f 145/1/2 146/1/2 149/1/2
f 149/1/2 146/1/2 150/1/2
f 147/1/2 148/1/2 151/1/2
f 151/1/2 148/1/2 152/1/2
f 153/1/2 154/1/2 157/1/2
f 157/1/2 154/1/2 158/1/2
f 155/1/2 156/1/2 159/1/2
f 159/1/2 156/1/2 160/1/2
f 161/1/2 162/1/2 164/1/2
f 164/1/2 162/1/2 165/1/2
f 165/1/2 162/1/2 166/1/2
f 166/1/2 162/1/2 167/1/2
f 163/1/2 164/1/2 169/1/2
f 164/1/2 165/1/2 169/1/2
f 169/1/2 165/1/2 170/1/2
f 167/1/2 168/1/2 171/1/2
f 166/1/2 167/1/2 171/1/2
f 171/1/2 168/1/2 172/1/2
f 163/1/2 169/1/2 173/1/2
f 172/1/2 168/1/2 176/1/2
f 173/1/2 174/1/2 177/1/2
f 163/1/2 173/1/2 177/1/2
f 177/1/2 174/1/2 178/1/2
f 178/1/2 174/1/2 179/1/2
f 175/1/2 176/1/2 180/1/2
f 176/1/2 168/1/2 181/1/2
f 180/1/2 176/1/2 181/1/2
f 181/1/2 168/1/2 182/1/2
f 178/1/2 179/1/2 183/1/2
f 179/1/2 180/1/2 183/1/2
f 180/1/2 181/1/2 183/1/2
f 183/1/2 181/1/2 184/1/2
f 188/1/3 186/1/3 185/1/3
f 189/1/3 186/1/3 188/1/3
f 190/1/3 186/1/3 189/1/3
f 191/1/3 186/1/3 190/1/3
f 193/1/3 188/1/3 187/1/3
f 193/1/3 189/1/3 188/1/3
f 194/1/3 189/1/3 193/1/3
f 195/1/3 192/1/3 191/1/3
f 195/1/3 191/1/3 190/1/3
f 196/1/3 192/1/3 195/1/3
f 197/1/3 193/1/3 187/1/3
f 200/1/3 192/1/3 196/1/3
f 201/1/3 198/1/3 197/1/3
f 201/1/3 197/1/3 187/1/3
f 202/1/3 198/1/3 201/1/3
f 203/1/3 198/1/3 202/1/3
f 204/1/3 200/1/3 199/1/3
f 205/1/3 192/1/3 200/1/3
f 205/1/3 200/1/3 204/1/3
f 206/1/3 192/1/3 205/1/3
f 207/1/3 203/1/3 202/1/3
f 207/1/3 204/1/3 203/1/3
f 207/1/3 205/1/3 204/1/3
f 208/1/3 205/1/3 207/1/3
f 213/1/3 210/1/3 209/1/3
f 214/1/3 210/1/3 213/1/3
f 215/1/3 212/1/3 211/1/3
f 216/1/3 212/1/3 215/1/3
f 221/1/3 218/1/3 217/1/3
f 222/1/3 218/1/3 221/1/3
f 223/1/3 220/1/3 219/1/3
f 224/1/3 220/1/3 223/1/3
f 230/1/3 226/1/3 225/1/3
f 231/1/3 226/1/3 230/1/3
f 232/1/3 228/1/3 227/1/3
f 233/1/3 228/1/3 232/1/3
f 235/1/3 230/1/3 229/1/3
f 236/1/3 230/1/3 235/1/3
f 237/1/3 234/1/3 233/1/3
f 238/1/3 234/1/3 237/1/3
f 243/1/3 240/1/3 239/1/3
f 244/1/3 240/1/3 243/1/3
f 247/1/3 242/1/3 241/1/3
f 248/1/3 242/1/3 247/1/3
f 249/1/3 245/1/3 244/1/3
f 250/1/3 245/1/3 249/1/3
f 251/1/3 247/1/3 246/1/3
f 252/1/3 247/1/3 251/1/3
f 256/1/3 254/1/3 253/1/3
f 257/1/3 254/1/3 256/1/3
f 260/1/3 256/1/3 255/1/3
f 261/1/3 256/1/3 260/1/3
f 262/1/3 258/1/3 257/1/3
f 263/1/3 258/1/3 262/1/3
f 265/1/3 260/1/3 259/1/3
f 266/1/3 260/1/3 265/1/3
f 269/1/3 264/1/3 263/1/3
f 270/1/3 264/1/3 269/1/3
f 271/1/3 267/1/3 266/1/3
f 272/1/3 267/1/3 271/1/3
f 273/1/3 269/1/3 268/1/3
f 274/1/3 269/1/3 273/1/3
f 275/1/3 273/1/3 272/1/3
f 276/1/3 273/1/3 275/1/3
f 277/1/4 278/1/4 280/1/4
f 280/1/4 278/1/4 281/1/4
f 279/1/4 280/1/4 284/1/4
f 284/1/4 280/1/4 285/1/4
f 281/1/4 282/1/4 286/1/4
f 286/1/4 282/1/4 287/1/4
f 283/1/4 284/1/4 289/1/4
f 289/1/4 284/1/4 290/1/4
f 287/1/4 288/1/4 293/1/4
f 293/1/4 288/1/4 294/1/4
f 290/1/4 291/1/4 295/1/4
f 295/1/4 291/1/4 296/1/4
f 292/1/4 293/1/4 297/1/4
f 297/1/4 293/1/4 298/1/4
f 296/1/4 297/1/4 299/1/4
f 299/1/4 297/1/4 300/1/4
f 301/1/4 302/1/4 306/1/4
f 306/1/4 302/1/4 307/1/4
f 303/1/4 304/1/4 308/1/4
f 308/1/4 304/1/4 309/1/4
f 305/1/4 306/1/4 311/1/4
f 311/1/4 306/1/4 312/1/4
f 309/1/4 310/1/4 313/1/4
f 313/1/4 310/1/4 314/1/4
f 315/1/4 316/1/4 319/1/4
f 319/1/4 316/1/4 320/1/4
f 317/1/4 318/1/4 323/1/4
f 323/1/4 318/1/4 324/1/4
f 320/1/4 321/1/4 325/1/4
f 325/1/4 321/1/4 326/1/4
f 322/1/4 323/1/4 327/1/4
f 327/1/4 323/1/4 328/1/4
f 329/1/4 330/1/4 333/1/4
f 333/1/4 330/1/4 334/1/4
f 331/1/4 332/1/4 335/1/4
f 335/1/4 332/1/4 336/1/4
f 337/1/4 338/1/4 341/1/4
f 341/1/4 338/1/4 342/1/4
f 339/1/4 340/1/4 343/1/4
f 343/1/4 340/1/4 344/1/4
f 345/1/4 346/1/4 348/1/4
f 348/1/4 346/1/4 349/1/4
f 349/1/4 346/1/4 350/1/4
f 350/1/4 346/1/4 351/1/4
f 347/1/4 348/1/4 353/1/4
f 348/1/4 349/1/4 353/1/4
f 353/1/4 349/1/4 354/1/4
f 351/1/4 352/1/4 355/1/4
f 350/1/4 351/1/4 355/1/4
f 355/1/4 352/1/4 356/1/4
f 347/1/4 353/1/4 357/1/4
f 356/1/4 352/1/4 360/1/4
f 357/1/4 358/1/4 361/1/4
f 347/1/4 357/1/4 361/1/4
f 361/1/4 358/1/4 362/1/4
f 362/1/4 358/1/4 363/1/4
f 359/1/4 360/1/4 364/1/4
f 360/1/4 352/1/4 365/1/4
f 364/1/4 360/1/4 365/1/4
f 365/1/4 352/1/4 366/1/4
f 362/1/4 363/1/4 367/1/4
f 363/1/4 364/1/4 367/1/4
f 364/1/4 365/1/4 367/1/4
f 367/1/4 365/1/4 368/1/4
f 372/1/5 370/1/5 369/1/5
f 373/1/5 370/1/5 372/1/5
f 374/1/5 370/1/5 373/1/5
f 375/1/5 370/1/5 374/1/5
f 377/1/5 372/1/5 371/1/5
f 377/1/5 373/1/5 372/1/5
f 378/1/5 373/1/5 377/1/5
f 379/1/5 376/1/5 375/1/5
f 379/1/5 375/1/5 374/1/5
f 380/1/5 376/1/5 379/1/5
f 381/1/5 377/1/5 371/1/5
f 384/1/5 376/1/5 380/1/5
f 385/1/5 382/1/5 381/1/5
f 385/1/5 381/1/5 371/1/5
f 386/1/5 382/1/5 385/1/5
f 387/1/5 382/1/5 386/1/5
f 388/1/5 384/1/5 383/1/5
f 389/1/5 376/1/5 384/1/5
f 389/1/5 384/1/5 388/1/5
f 390/1/5 376/1/5 389/1/5
f 391/1/5 387/1/5 386/1/5
f 391/1/5 388/1/5 387/1/5
f 391/1/5 389/1/5 388/1/5
f 392/1/5 389/1/5 391/1/5
f 397/1/5 394/1/5 393/1/5
f 398/1/5 394/1/5 397/1/5
f 399/1/5 396/1/5 395/1/5
f 400/1/5 396/1/5 399/1/5
f 405/1/5 402/1/5 401/1/5
f 406/1/5 402/1/5 405/1/5
f 407/1/5 404/1/5 403/1/5
f 408/1/5 404/1/5 407/1/5
f 414/1/5 410/1/5 409/1/5
f 415/1/5 410/1/5 414/1/5
f 416/1/5 412/1/5 411/1/5
f 417/1/5 412/1/5 416/1/5
f 419/1/5 414/1/5 413/1/5
f 420/1/5 414/1/5 419/1/5
f 421/1/5 418/1/5 417/1/5
f 422/1/5 418/1/5 421/1/5
f 427/1/5 424/1/5 423/1/5
f 428/1/5 424/1/5 427/1/5
f 431/1/5 426/1/5 425/1/5
f 432/1/5 426/1/5 431/1/5
f 433/1/5 429/1/5 428/1/5
f 434/1/5 429/1/5 433/1/5
f 435/1/5 431/1/5 430/1/5
f 436/1/5 431/1/5 435/1/5
f 440/1/5 438/1/5 437/1/5
f 441/1/5 438/1/5 440/1/5
f 444/1/5 440/1/5 439/1/5
f 445/1/5 440/1/5 444/1/5
f 446/1/5 442/1/5 441/1/5
f 447/1/5 442/1/5 446/1/5
f 449/1/5 444/1/5 443/1/5
f 450/1/5 444/1/5 449/1/5
f 453/1/5 448/1/5 447/1/5
f 454/1/5 448/1/5 453/1/5
f 455/1/5 451/1/5 450/1/5
f 456/1/5 451/1/5 455/1/5
f 457/1/5 453/1/5 452/1/5
f 458/1/5 453/1/5 457/1/5
f 459/1/5 457/1/5 456/1/5
f 460/1/5 457/1/5 459/1/5
f 461/1/6 462/1/6 464/1/6
f 464/1/6 462/1/6 465/1/6
f 463/1/6 464/1/6 468/1/6
f 468/1/6 464/1/6 469/1/6
f 465/1/6 466/1/6 470/1/6
f 470/1/6 466/1/6 471/1/6
f 467/1/6 468/1/6 473/1/6
f 473/1/6 468/1/6 474/1/6
f 471/1/6 472/1/6 477/1/6
f 477/1/6 472/1/6 478/1/6
f 474/1/6 475/1/6 479/1/6
f 479/1/6 475/1/6 480/1/6
f 476/1/6 477/1/6 481/1/6
f 481/1/6 477/1/6 482/1/6
f 480/1/6 481/1/6 483/1/6
f 483/1/6 481/1/6 484/1/6
f 485/1/6 486/1/6 490/1/6
f 490/1/6 486/1/6 491/1/6
f 487/1/6 488/1/6 492/1/6
f 492/1/6 488/1/6 493/1/6
f 489/1/6 490/1/6 495/1/6
f 495/1/6 490/1/6 496/1/6
f 493/1/6 494/1/6 497/1/6
f 497/1/6 494/1/6 498/1/6
f 499/1/6 500/1/6 503/1/6
f 503/1/6 500/1/6 504/1/6
f 501/1/6 502/1/6 507/1/6
f 507/1/6 502/1/6 508/1/6
f 504/1/6 505/1/6 509/1/6
f 509/1/6 505/1/6 510/1/6
f 506/1/6 507/1/6 511/1/6
f 511/1/6 507/1/6 512/1/6
f 513/1/6 514/1/6 517/1/6
f 517/1/6 514/1/6 518/1/6
f 515/1/6 516/1/6 519/1/6
f 519/1/6 516/1/6 520/1/6
f 521/1/6 522/1/6 525/1/6
f 525/1/6 522/1/6 526/1/6
f 523/1/6 524/1/6 527/1/6
f 527/1/6 524/1/6 528/1/6
f 529/1/6 530/1/6 532/1/6
f 532/1/6 530/1/6 533/1/6
f 533/1/6 530/1/6 534/1/6
f 534/1/6 530/1/6 535/1/6
f 531/1/6 532/1/6 537/1/6
f 532/1/6 533/1/6 537/1/6
f 537/1/6 533/1/6 538/1/6
f 535/1/6 536/1/6 539/1/6
f 534/1/6 535/1/6 539/1/6
f 539/1/6 536/1/6 540/1/6
f 531/1/6 537/1/6 541/1/6
f 540/1/6 536/1/6 544/1/6
f 541/1/6 542/1/6 545/1/6
f 531/1/6 541/1/6 545/1/6
f 545/1/6 542/1/6 546/1/6
f 546/1/6 542/1/6 547/1/6
f 543/1/6 544/1/6 548/1/6
f 544/1/6 536/1/6 549/1/6
f 548/1/6 544/1/6 549/1/6
f 549/1/6 536/1/6 550/1/6
f 546/1/6 547/1/6 551/1/6
f 547/1/6 548/1/6 551/1/6
f 548/1/6 549/1/6 551/1/6
f 551/1/6 549/1/6 552/1/6
