# Blender v2.75 (sub 0) OBJ File: ''
# www.blender.org
mtllib single_door_frame.mtl
o single_door_frame_single_door_frame..002
v 0.999999 0.450002 -1.900000
v 0.999999 0.450002 -2.000000
v 0.899999 0.450002 -2.000000
v 0.899999 0.450002 -1.900000
v 0.899999 0.300002 -2.000000
v 0.999999 0.300002 -2.000000
v 0.999999 0.300002 -1.900000
v 0.899999 0.300002 -1.900000
v 0.900000 0.450000 0.000000
v 0.900000 0.300000 0.000000
v 0.000001 0.450002 -1.900000
v 0.100001 0.450002 -1.900000
v 0.100001 0.450002 -2.000000
v 0.000001 0.450002 -2.000000
v 0.100001 0.300002 -2.000000
v 0.000001 0.300002 -2.000000
v 0.000001 0.300002 -1.900000
v 0.100001 0.300002 -1.900000
v 0.000000 0.300000 0.000000
v 0.000000 0.450000 0.000000
v 0.100000 0.450000 0.000000
v 1.000000 0.300000 0.000000
v 1.000000 0.450000 0.000000
v 0.100000 0.300000 0.000000
v 0.999999 0.549998 -1.900000
v 0.899999 0.549998 -1.900000
v 0.899999 0.549998 -2.000000
v 0.999999 0.549998 -2.000000
v 0.899999 0.699998 -2.000000
v 0.999999 0.699998 -2.000000
v 0.999999 0.699998 -1.900000
v 0.899999 0.699998 -1.900000
v 0.900000 0.550000 0.000000
v 0.900000 0.700000 0.000000
v 0.000001 0.549998 -1.900000
v 0.000001 0.549998 -2.000000
v 0.100001 0.549998 -2.000000
v 0.100001 0.549998 -1.900000
v 0.100001 0.699998 -2.000000
v 0.000001 0.699998 -2.000000
v 0.000001 0.699998 -1.900000
v 0.100001 0.699998 -1.900000
v 0.000000 0.700000 0.000000
v 0.000000 0.550000 0.000000
v 0.100000 0.550000 0.000000
v 1.000000 0.550000 0.000000
v 1.000000 0.700000 0.000000
v 0.100000 0.700000 0.000000
vt 0.000000 0.000000
vn 0.000000 1.000000 0.000000
vn 0.000000 0.000000 -1.000000
vn 1.000000 0.000000 -0.000000
vn 0.000000 -1.000000 -0.000000
vn -1.000000 0.000000 0.000000
vn 0.000000 0.000000 1.000000
usemtl None
s 1
f 1/1/1 2/1/1 3/1/1 4/1/1
f 5/1/2 3/1/2 2/1/2 6/1/2
f 7/1/3 6/1/3 2/1/3 1/1/3
f 8/1/4 5/1/4 6/1/4 7/1/4
f 9/1/5 4/1/5 8/1/5 10/1/5
f 11/1/1 12/1/1 13/1/1 14/1/1
f 15/1/2 16/1/2 14/1/2 13/1/2
f 17/1/5 11/1/5 14/1/5 16/1/5
f 18/1/4 17/1/4 16/1/4 15/1/4
f 19/1/5 20/1/5 11/1/5 17/1/5
f 20/1/1 21/1/1 12/1/1 11/1/1
f 5/1/2 15/1/2 13/1/2 3/1/2
f 4/1/6 12/1/6 18/1/6 8/1/6
f 3/1/1 13/1/1 12/1/1 4/1/1
f 8/1/4 18/1/4 15/1/4 5/1/4
f 10/1/6 22/1/6 23/1/6 9/1/6
f 10/1/4 8/1/4 7/1/4 22/1/4
f 22/1/3 7/1/3 1/1/3 23/1/3
f 23/1/1 1/1/1 4/1/1 9/1/1
f 24/1/6 21/1/6 20/1/6 19/1/6
f 21/1/3 24/1/3 18/1/3 12/1/3
f 24/1/4 19/1/4 17/1/4 18/1/4
f 25/1/4 26/1/4 27/1/4 28/1/4
f 29/1/2 30/1/2 28/1/2 27/1/2
f 31/1/3 25/1/3 28/1/3 30/1/3
f 32/1/1 31/1/1 30/1/1 29/1/1
f 33/1/5 34/1/5 32/1/5 26/1/5
f 35/1/4 36/1/4 37/1/4 38/1/4
f 39/1/2 37/1/2 36/1/2 40/1/2
f 41/1/5 40/1/5 36/1/5 35/1/5
f 42/1/1 39/1/1 40/1/1 41/1/1
f 43/1/5 41/1/5 35/1/5 44/1/5
f 44/1/4 35/1/4 38/1/4 45/1/4
f 29/1/2 27/1/2 37/1/2 39/1/2
f 26/1/6 32/1/6 42/1/6 38/1/6
f 27/1/4 26/1/4 38/1/4 37/1/4
f 32/1/1 29/1/1 39/1/1 42/1/1
f 34/1/6 33/1/6 46/1/6 47/1/6
f 34/1/1 47/1/1 31/1/1 32/1/1
f 47/1/3 46/1/3 25/1/3 31/1/3
f 46/1/4 33/1/4 26/1/4 25/1/4
f 48/1/6 43/1/6 44/1/6 45/1/6
f 45/1/3 38/1/3 42/1/3 48/1/3
f 48/1/1 42/1/1 41/1/1 43/1/1
